<svg width="361" height="167" viewBox="0 0 361 167" fill="none" xmlns="http://www.w3.org/2000/svg">
<g clip-path="url(#clip0_3734_12719)">
<rect width="361" height="166.75" rx="16" fill="white"/>
<path d="M21 40.68H45V16.68H21V40.68Z" fill="black"/>
<path d="M58.08 35V22.4H65.523V24.596H60.276V27.152H64.659V29.348H60.276V35H58.08ZM72.5081 35.234C71.6561 35.234 70.8551 35.066 70.1051 34.73C69.3551 34.388 68.6951 33.917 68.1251 33.317C67.5551 32.717 67.1081 32.024 66.7841 31.238C66.4601 30.446 66.2981 29.6 66.2981 28.7C66.2981 27.8 66.4601 26.957 66.7841 26.171C67.1081 25.379 67.5551 24.683 68.1251 24.083C68.6951 23.483 69.3551 23.015 70.1051 22.679C70.8551 22.337 71.6561 22.166 72.5081 22.166C73.3661 22.166 74.1701 22.337 74.9201 22.679C75.6701 23.015 76.3301 23.483 76.9001 24.083C77.4701 24.683 77.9141 25.379 78.2321 26.171C78.5561 26.957 78.7181 27.8 78.7181 28.7C78.7181 29.6 78.5561 30.446 78.2321 31.238C77.9141 32.024 77.4701 32.717 76.9001 33.317C76.3301 33.917 75.6701 34.388 74.9201 34.73C74.1701 35.066 73.3661 35.234 72.5081 35.234ZM72.5081 33.038C73.0601 33.038 73.5791 32.924 74.0651 32.696C74.5511 32.468 74.9771 32.156 75.3431 31.76C75.7151 31.358 76.0031 30.896 76.2071 30.374C76.4171 29.852 76.5221 29.294 76.5221 28.7C76.5221 28.106 76.4171 27.548 76.2071 27.026C75.9971 26.498 75.7061 26.036 75.3341 25.64C74.9681 25.244 74.5421 24.932 74.0561 24.704C73.5761 24.476 73.0601 24.362 72.5081 24.362C71.9561 24.362 71.4371 24.476 70.9511 24.704C70.4651 24.932 70.0361 25.247 69.6641 25.649C69.2981 26.045 69.0101 26.504 68.8001 27.026C68.5961 27.548 68.4941 28.106 68.4941 28.7C68.4941 29.3 68.5991 29.861 68.8091 30.383C69.0191 30.905 69.3071 31.367 69.6731 31.769C70.0451 32.165 70.4711 32.477 70.9511 32.705C71.4371 32.927 71.9561 33.038 72.5081 33.038ZM80.3515 35V22.4H82.5475V32.804H87.7945V35H80.3515ZM98.9804 35H96.1184L92.5814 30.059L91.9694 30.788V35H89.7734V22.4H91.9694V27.377L96.1364 22.4H99.0074L94.0124 28.34L98.9804 35ZM104.932 35V22.4H107.128V35H104.932ZM117.81 29.312V35H115.614V29.888C115.614 29.534 115.527 29.213 115.353 28.925C115.179 28.631 114.945 28.4 114.651 28.232C114.363 28.058 114.042 27.971 113.688 27.971C113.334 27.971 113.01 28.058 112.716 28.232C112.428 28.4 112.197 28.631 112.023 28.925C111.855 29.213 111.771 29.534 111.771 29.888V35H109.575L109.566 26H111.762L111.771 26.801C112.077 26.477 112.443 26.222 112.869 26.036C113.295 25.844 113.754 25.748 114.246 25.748C114.9 25.748 115.497 25.91 116.037 26.234C116.577 26.552 117.006 26.981 117.324 27.521C117.648 28.055 117.81 28.652 117.81 29.312ZM124.427 28.196H122.681V35H120.485V28.196H119.153V26H120.485V23.174H122.681V26H124.427V28.196ZM126.064 35L126.055 26H128.251L128.26 26.801C128.566 26.477 128.932 26.222 129.358 26.036C129.784 25.844 130.243 25.748 130.735 25.748C131.065 25.748 131.395 25.796 131.725 25.892L130.861 28.106C130.633 28.016 130.405 27.971 130.177 27.971C129.823 27.971 129.499 28.058 129.205 28.232C128.917 28.4 128.686 28.631 128.512 28.925C128.344 29.213 128.26 29.534 128.26 29.888V35H126.064ZM136.272 35.234C135.444 35.234 134.688 35.021 134.004 34.595C133.326 34.169 132.783 33.599 132.375 32.885C131.973 32.165 131.772 31.37 131.772 30.5C131.772 29.84 131.889 29.225 132.123 28.655C132.357 28.079 132.678 27.575 133.086 27.143C133.5 26.705 133.98 26.363 134.526 26.117C135.072 25.871 135.654 25.748 136.272 25.748C137.1 25.748 137.853 25.961 138.531 26.387C139.215 26.813 139.758 27.386 140.16 28.106C140.568 28.826 140.772 29.624 140.772 30.5C140.772 31.154 140.655 31.766 140.421 32.336C140.187 32.906 139.863 33.41 139.449 33.848C139.041 34.28 138.564 34.619 138.018 34.865C137.478 35.111 136.896 35.234 136.272 35.234ZM136.272 33.038C136.71 33.038 137.103 32.921 137.451 32.687C137.799 32.453 138.072 32.144 138.27 31.76C138.474 31.376 138.576 30.956 138.576 30.5C138.576 30.032 138.471 29.606 138.261 29.222C138.057 28.832 137.778 28.523 137.424 28.295C137.076 28.061 136.692 27.944 136.272 27.944C135.84 27.944 135.45 28.061 135.102 28.295C134.754 28.529 134.478 28.841 134.274 29.231C134.07 29.621 133.968 30.044 133.968 30.5C133.968 30.974 134.073 31.403 134.283 31.787C134.493 32.171 134.772 32.477 135.12 32.705C135.474 32.927 135.858 33.038 136.272 33.038Z" fill="#1F2937"/>
<rect x="21" y="51" width="319" height="98.75" rx="10" fill="#F5F5F5"/>
<path d="M41.123 70.2H42.544L46.107 80H44.861L44.133 77.998H39.534L38.813 80H37.56L41.123 70.2ZM39.968 76.822H43.699L41.83 71.705L39.968 76.822ZM52.4583 71.271V73H54.5093V74.176H52.4583V80H51.2823V74.176H50.3793V73H51.2823V71.271C51.2823 70.9117 51.3686 70.5873 51.5413 70.298C51.7186 70.004 51.9543 69.7707 52.2483 69.598C52.547 69.4207 52.8736 69.332 53.2283 69.332C53.4896 69.332 53.744 69.3857 53.9913 69.493C54.2386 69.5957 54.458 69.7497 54.6493 69.955L53.8093 70.788C53.744 70.6993 53.6576 70.6317 53.5503 70.585C53.4476 70.5337 53.3403 70.508 53.2283 70.508C53.0183 70.508 52.8363 70.5827 52.6823 70.732C52.533 70.8813 52.4583 71.061 52.4583 71.271ZM58.5567 80.182C57.9127 80.182 57.3247 80.0163 56.7927 79.685C56.2654 79.3537 55.8431 78.9103 55.5257 78.355C55.2131 77.795 55.0567 77.1767 55.0567 76.5C55.0567 75.9867 55.1477 75.5083 55.3297 75.065C55.5117 74.617 55.7614 74.225 56.0787 73.889C56.4007 73.5483 56.7741 73.2823 57.1987 73.091C57.6234 72.8997 58.0761 72.804 58.5567 72.804C59.2007 72.804 59.7864 72.9697 60.3137 73.301C60.8457 73.6323 61.2681 74.078 61.5807 74.638C61.8981 75.198 62.0567 75.8187 62.0567 76.5C62.0567 77.0087 61.9657 77.4847 61.7837 77.928C61.6017 78.3713 61.3497 78.7633 61.0277 79.104C60.7104 79.44 60.3394 79.7037 59.9147 79.895C59.4947 80.0863 59.0421 80.182 58.5567 80.182ZM58.5567 79.006C58.9954 79.006 59.3897 78.8917 59.7397 78.663C60.0944 78.4297 60.3721 78.124 60.5727 77.746C60.7781 77.3633 60.8807 76.948 60.8807 76.5C60.8807 76.0427 60.7757 75.6227 60.5657 75.24C60.3604 74.8573 60.0827 74.5517 59.7327 74.323C59.3827 74.0943 58.9907 73.98 58.5567 73.98C58.1181 73.98 57.7237 74.0967 57.3737 74.33C57.0237 74.5587 56.7461 74.8643 56.5407 75.247C56.3354 75.6297 56.2327 76.0473 56.2327 76.5C56.2327 76.9667 56.3377 77.3913 56.5477 77.774C56.7577 78.152 57.0401 78.453 57.3947 78.677C57.7494 78.8963 58.1367 79.006 58.5567 79.006ZM62.8393 77.34V73H64.0153V77.081C64.0153 77.4357 64.1016 77.7577 64.2743 78.047C64.447 78.3363 64.678 78.5673 64.9673 78.74C65.2613 78.908 65.5833 78.992 65.9333 78.992C66.288 78.992 66.6076 78.908 66.8923 78.74C67.1816 78.5673 67.4126 78.3363 67.5853 78.047C67.758 77.7577 67.8443 77.4357 67.8443 77.081V73H69.0203L69.0273 80H67.8513L67.8443 79.111C67.597 79.4377 67.2843 79.699 66.9063 79.895C66.5283 80.0863 66.12 80.182 65.6813 80.182C65.1586 80.182 64.6803 80.056 64.2463 79.804C63.817 79.5473 63.474 79.2043 63.2173 78.775C62.9653 78.3457 62.8393 77.8673 62.8393 77.34ZM76.6218 75.646V80H75.4458V75.905C75.4458 75.5503 75.3594 75.2283 75.1868 74.939C75.0141 74.6497 74.7831 74.421 74.4938 74.253C74.2044 74.0803 73.8824 73.994 73.5278 73.994C73.1778 73.994 72.8558 74.0803 72.5618 74.253C72.2724 74.421 72.0414 74.6497 71.8688 74.939C71.6961 75.2283 71.6098 75.5503 71.6098 75.905V80H70.4338V73H71.6098V73.875C71.8571 73.5483 72.1698 73.2893 72.5478 73.098C72.9258 72.902 73.3364 72.804 73.7798 72.804C74.3024 72.804 74.7784 72.9323 75.2078 73.189C75.6418 73.441 75.9848 73.7817 76.2368 74.211C76.4934 74.6403 76.6218 75.1187 76.6218 75.646ZM83.5199 69.5H84.6959V80H83.5199V78.81C83.2819 79.2207 82.9623 79.552 82.5609 79.804C82.1596 80.056 81.6883 80.182 81.1469 80.182C80.6383 80.182 80.1623 80.0863 79.7189 79.895C79.2756 79.7037 78.8836 79.44 78.5429 79.104C78.2069 78.7633 77.9433 78.3713 77.7519 77.928C77.5606 77.4847 77.4649 77.0087 77.4649 76.5C77.4649 75.9913 77.5606 75.5153 77.7519 75.072C77.9433 74.624 78.2069 74.232 78.5429 73.896C78.8836 73.5553 79.2756 73.2893 79.7189 73.098C80.1623 72.9067 80.6383 72.811 81.1469 72.811C81.6883 72.811 82.1596 72.937 82.5609 73.189C82.9623 73.441 83.2819 73.7723 83.5199 74.183V69.5ZM81.1609 79.041C81.6229 79.041 82.0219 78.929 82.3579 78.705C82.6986 78.4763 82.9599 78.1683 83.1419 77.781C83.3286 77.3937 83.4219 76.9667 83.4219 76.5C83.4219 76.024 83.3286 75.5947 83.1419 75.212C82.9553 74.8247 82.6916 74.519 82.3509 74.295C82.0149 74.0663 81.6183 73.952 81.1609 73.952C80.6989 73.952 80.2789 74.0663 79.9009 74.295C79.5276 74.5237 79.2289 74.8317 79.0049 75.219C78.7809 75.6017 78.6689 76.0287 78.6689 76.5C78.6689 76.9713 78.7833 77.4007 79.0119 77.788C79.2406 78.1707 79.5439 78.4763 79.9219 78.705C80.2999 78.929 80.7129 79.041 81.1609 79.041ZM91.9348 73H93.1108V80H91.9348L91.8858 78.817C91.6665 79.223 91.3631 79.552 90.9758 79.804C90.5931 80.056 90.1358 80.182 89.6038 80.182C89.0905 80.182 88.6098 80.0863 88.1618 79.895C87.7138 79.699 87.3171 79.4307 86.9718 79.09C86.6311 78.7447 86.3651 78.348 86.1738 77.9C85.9825 77.452 85.8868 76.969 85.8868 76.451C85.8868 75.9517 85.9801 75.4803 86.1668 75.037C86.3535 74.5937 86.6125 74.2063 86.9438 73.875C87.2798 73.539 87.6671 73.2777 88.1058 73.091C88.5445 72.8997 89.0158 72.804 89.5198 72.804C90.0705 72.804 90.5535 72.9347 90.9688 73.196C91.3841 73.4527 91.7201 73.7863 91.9768 74.197L91.9348 73ZM89.5828 79.041C90.0448 79.041 90.4438 78.929 90.7798 78.705C91.1205 78.4763 91.3818 78.1683 91.5638 77.781C91.7505 77.3937 91.8438 76.9667 91.8438 76.5C91.8438 76.024 91.7505 75.5947 91.5638 75.212C91.3771 74.8247 91.1135 74.519 90.7728 74.295C90.4368 74.0663 90.0401 73.952 89.5828 73.952C89.1208 73.952 88.7008 74.0663 88.3228 74.295C87.9448 74.5237 87.6438 74.8317 87.4198 75.219C87.2005 75.6017 87.0908 76.0287 87.0908 76.5C87.0908 76.9713 87.2051 77.4007 87.4338 77.788C87.6625 78.1707 87.9658 78.4763 88.3438 78.705C88.7218 78.929 89.1348 79.041 89.5828 79.041ZM98.1359 74.176H96.5469L96.5399 80H95.3639L95.3709 74.176H94.1669V73H95.3709L95.3639 70.802H96.5399L96.5469 73H98.1359V74.176ZM99.3224 73H100.498V80H99.3224V73ZM99.9244 71.859C99.7378 71.859 99.5814 71.7983 99.4554 71.677C99.3294 71.5557 99.2664 71.404 99.2664 71.222C99.2664 71.04 99.3294 70.8883 99.4554 70.767C99.5814 70.6457 99.7354 70.585 99.9174 70.585C100.099 70.585 100.253 70.6457 100.379 70.767C100.505 70.8883 100.568 71.04 100.568 71.222C100.568 71.404 100.505 71.5557 100.379 71.677C100.258 71.7983 100.106 71.859 99.9244 71.859ZM105.164 80.182C104.52 80.182 103.932 80.0163 103.4 79.685C102.873 79.3537 102.45 78.9103 102.133 78.355C101.82 77.795 101.664 77.1767 101.664 76.5C101.664 75.9867 101.755 75.5083 101.937 75.065C102.119 74.617 102.369 74.225 102.686 73.889C103.008 73.5483 103.381 73.2823 103.806 73.091C104.231 72.8997 104.683 72.804 105.164 72.804C105.808 72.804 106.394 72.9697 106.921 73.301C107.453 73.6323 107.875 74.078 108.188 74.638C108.505 75.198 108.664 75.8187 108.664 76.5C108.664 77.0087 108.573 77.4847 108.391 77.928C108.209 78.3713 107.957 78.7633 107.635 79.104C107.318 79.44 106.947 79.7037 106.522 79.895C106.102 80.0863 105.649 80.182 105.164 80.182ZM105.164 79.006C105.603 79.006 105.997 78.8917 106.347 78.663C106.702 78.4297 106.979 78.124 107.18 77.746C107.385 77.3633 107.488 76.948 107.488 76.5C107.488 76.0427 107.383 75.6227 107.173 75.24C106.968 74.8573 106.69 74.5517 106.34 74.323C105.99 74.0943 105.598 73.98 105.164 73.98C104.725 73.98 104.331 74.0967 103.981 74.33C103.631 74.5587 103.353 74.8643 103.148 75.247C102.943 75.6297 102.84 76.0473 102.84 76.5C102.84 76.9667 102.945 77.3913 103.155 77.774C103.365 78.152 103.647 78.453 104.002 78.677C104.357 78.8963 104.744 79.006 105.164 79.006ZM116.01 75.646V80H114.834V75.905C114.834 75.5503 114.748 75.2283 114.575 74.939C114.403 74.6497 114.172 74.421 113.882 74.253C113.593 74.0803 113.271 73.994 112.916 73.994C112.566 73.994 112.244 74.0803 111.95 74.253C111.661 74.421 111.43 74.6497 111.257 74.939C111.085 75.2283 110.998 75.5503 110.998 75.905V80H109.822V73H110.998V73.875C111.246 73.5483 111.558 73.2893 111.936 73.098C112.314 72.902 112.725 72.804 113.168 72.804C113.691 72.804 114.167 72.9323 114.596 73.189C115.03 73.441 115.373 73.7817 115.625 74.211C115.882 74.6403 116.01 75.1187 116.01 75.646ZM122.902 73H124.078V80H122.902L122.853 78.817C122.633 79.223 122.33 79.552 121.943 79.804C121.56 80.056 121.103 80.182 120.571 80.182C120.057 80.182 119.577 80.0863 119.129 79.895C118.681 79.699 118.284 79.4307 117.939 79.09C117.598 78.7447 117.332 78.348 117.141 77.9C116.949 77.452 116.854 76.969 116.854 76.451C116.854 75.9517 116.947 75.4803 117.134 75.037C117.32 74.5937 117.579 74.2063 117.911 73.875C118.247 73.539 118.634 73.2777 119.073 73.091C119.511 72.8997 119.983 72.804 120.487 72.804C121.037 72.804 121.52 72.9347 121.936 73.196C122.351 73.4527 122.687 73.7863 122.944 74.197L122.902 73ZM120.55 79.041C121.012 79.041 121.411 78.929 121.747 78.705C122.087 78.4763 122.349 78.1683 122.531 77.781C122.717 77.3937 122.811 76.9667 122.811 76.5C122.811 76.024 122.717 75.5947 122.531 75.212C122.344 74.8247 122.08 74.519 121.74 74.295C121.404 74.0663 121.007 73.952 120.55 73.952C120.088 73.952 119.668 74.0663 119.29 74.295C118.912 74.5237 118.611 74.8317 118.387 75.219C118.167 75.6017 118.058 76.0287 118.058 76.5C118.058 76.9713 118.172 77.4007 118.401 77.788C118.629 78.1707 118.933 78.4763 119.311 78.705C119.689 78.929 120.102 79.041 120.55 79.041ZM125.559 80V69.5H126.735V80H125.559ZM136.602 78.152L137.652 78.719C137.335 79.1623 136.931 79.517 136.441 79.783C135.956 80.049 135.429 80.182 134.859 80.182C134.215 80.182 133.627 80.0163 133.095 79.685C132.568 79.3537 132.146 78.9103 131.828 78.355C131.516 77.795 131.359 77.1767 131.359 76.5C131.359 75.9867 131.45 75.5083 131.632 75.065C131.814 74.617 132.064 74.225 132.381 73.889C132.703 73.5483 133.077 73.2823 133.501 73.091C133.926 72.8997 134.379 72.804 134.859 72.804C135.429 72.804 135.956 72.937 136.441 73.203C136.931 73.469 137.335 73.826 137.652 74.274L136.602 74.841C136.378 74.5657 136.112 74.3533 135.804 74.204C135.496 74.0547 135.181 73.98 134.859 73.98C134.425 73.98 134.031 74.0967 133.676 74.33C133.326 74.5587 133.049 74.8643 132.843 75.247C132.638 75.6297 132.535 76.0473 132.535 76.5C132.535 76.9527 132.638 77.3703 132.843 77.753C133.053 78.131 133.333 78.4343 133.683 78.663C134.038 78.8917 134.43 79.006 134.859 79.006C135.205 79.006 135.529 78.9267 135.832 78.768C136.136 78.6093 136.392 78.404 136.602 78.152ZM141.873 80.182C141.229 80.182 140.641 80.0163 140.109 79.685C139.582 79.3537 139.159 78.9103 138.842 78.355C138.529 77.795 138.373 77.1767 138.373 76.5C138.373 75.9867 138.464 75.5083 138.646 75.065C138.828 74.617 139.078 74.225 139.395 73.889C139.717 73.5483 140.09 73.2823 140.515 73.091C140.94 72.8997 141.392 72.804 141.873 72.804C142.517 72.804 143.103 72.9697 143.63 73.301C144.162 73.6323 144.584 74.078 144.897 74.638C145.214 75.198 145.373 75.8187 145.373 76.5C145.373 77.0087 145.282 77.4847 145.1 77.928C144.918 78.3713 144.666 78.7633 144.344 79.104C144.027 79.44 143.656 79.7037 143.231 79.895C142.811 80.0863 142.358 80.182 141.873 80.182ZM141.873 79.006C142.312 79.006 142.706 78.8917 143.056 78.663C143.411 78.4297 143.688 78.124 143.889 77.746C144.094 77.3633 144.197 76.948 144.197 76.5C144.197 76.0427 144.092 75.6227 143.882 75.24C143.677 74.8573 143.399 74.5517 143.049 74.323C142.699 74.0943 142.307 73.98 141.873 73.98C141.434 73.98 141.04 74.0967 140.69 74.33C140.34 74.5587 140.062 74.8643 139.857 75.247C139.652 75.6297 139.549 76.0473 139.549 76.5C139.549 76.9667 139.654 77.3913 139.864 77.774C140.074 78.152 140.356 78.453 140.711 78.677C141.066 78.8963 141.453 79.006 141.873 79.006ZM146.156 77.34V73H147.332V77.081C147.332 77.4357 147.418 77.7577 147.591 78.047C147.763 78.3363 147.994 78.5673 148.284 78.74C148.578 78.908 148.9 78.992 149.25 78.992C149.604 78.992 149.924 78.908 150.209 78.74C150.498 78.5673 150.729 78.3363 150.902 78.047C151.074 77.7577 151.161 77.4357 151.161 77.081V73H152.337L152.344 80H151.168L151.161 79.111C150.913 79.4377 150.601 79.699 150.223 79.895C149.845 80.0863 149.436 80.182 148.998 80.182C148.475 80.182 147.997 80.056 147.563 79.804C147.133 79.5473 146.79 79.2043 146.534 78.775C146.282 78.3457 146.156 77.8673 146.156 77.34ZM153.75 80V73H154.926V73.875C155.173 73.5483 155.486 73.2893 155.864 73.098C156.242 72.902 156.653 72.804 157.096 72.804C157.367 72.804 157.628 72.839 157.88 72.909L157.404 74.085C157.213 74.0243 157.026 73.994 156.844 73.994C156.494 73.994 156.172 74.0803 155.878 74.253C155.589 74.421 155.358 74.6497 155.185 74.939C155.012 75.2283 154.926 75.5503 154.926 75.905V80H153.75ZM160.875 80.133C160.497 80.119 160.129 80.049 159.769 79.923C159.415 79.7923 159.102 79.6173 158.831 79.398C158.565 79.174 158.372 78.9173 158.25 78.628L159.258 78.194C159.328 78.3527 159.454 78.502 159.636 78.642C159.818 78.782 160.028 78.894 160.266 78.978C160.504 79.062 160.745 79.104 160.987 79.104C161.244 79.104 161.484 79.0643 161.708 78.985C161.932 78.9057 162.114 78.789 162.254 78.635C162.399 78.4763 162.471 78.2873 162.471 78.068C162.471 77.8347 162.392 77.6527 162.233 77.522C162.079 77.3867 161.883 77.2817 161.645 77.207C161.412 77.1277 161.174 77.053 160.931 76.983C160.451 76.8617 160.021 76.717 159.643 76.549C159.265 76.3763 158.967 76.1593 158.747 75.898C158.533 75.632 158.425 75.2937 158.425 74.883C158.425 74.449 158.544 74.0733 158.782 73.756C159.025 73.4387 159.342 73.1937 159.734 73.021C160.126 72.8483 160.546 72.762 160.994 72.762C161.559 72.762 162.075 72.8833 162.541 73.126C163.008 73.3687 163.356 73.6977 163.584 74.113L162.639 74.666C162.56 74.498 162.439 74.351 162.275 74.225C162.112 74.0943 161.925 73.9917 161.715 73.917C161.505 73.8423 161.291 73.8027 161.071 73.798C160.801 73.7887 160.546 73.8237 160.308 73.903C160.075 73.9823 159.886 74.1037 159.741 74.267C159.601 74.4257 159.531 74.624 159.531 74.862C159.531 75.0953 159.606 75.2727 159.755 75.394C159.909 75.5153 160.108 75.6133 160.35 75.688C160.598 75.758 160.866 75.8397 161.155 75.933C161.58 76.0683 161.977 76.2247 162.345 76.402C162.714 76.5793 163.01 76.801 163.234 77.067C163.463 77.333 163.575 77.662 163.57 78.054C163.57 78.4833 163.442 78.859 163.185 79.181C162.929 79.4983 162.595 79.741 162.184 79.909C161.778 80.077 161.342 80.1517 160.875 80.133ZM167.781 80.182C167.137 80.182 166.549 80.0163 166.017 79.685C165.49 79.3537 165.068 78.9103 164.75 78.355C164.438 77.795 164.281 77.1767 164.281 76.5C164.281 75.9867 164.372 75.5083 164.554 75.065C164.736 74.617 164.986 74.225 165.303 73.889C165.625 73.5483 165.999 73.2823 166.423 73.091C166.848 72.8997 167.301 72.804 167.781 72.804C168.309 72.804 168.792 72.9113 169.23 73.126C169.674 73.336 170.052 73.63 170.364 74.008C170.682 74.386 170.917 74.8247 171.071 75.324C171.23 75.8233 171.288 76.3577 171.246 76.927H165.534C165.59 77.3237 165.721 77.6783 165.926 77.991C166.132 78.299 166.393 78.544 166.71 78.726C167.032 78.908 167.389 79.0013 167.781 79.006C168.201 79.006 168.582 78.8987 168.922 78.684C169.263 78.4647 169.538 78.166 169.748 77.788L170.945 78.068C170.665 78.6887 170.243 79.1973 169.678 79.594C169.114 79.986 168.481 80.182 167.781 80.182ZM165.499 76.003H170.063C170.026 75.611 169.9 75.254 169.685 74.932C169.471 74.6053 169.198 74.344 168.866 74.148C168.535 73.952 168.173 73.854 167.781 73.854C167.389 73.854 167.03 73.9497 166.703 74.141C166.377 74.3323 166.106 74.5913 165.891 74.918C165.681 75.24 165.551 75.6017 165.499 76.003ZM179.511 74.176H177.922L177.915 80H176.739L176.746 74.176H175.542V73H176.746L176.739 70.802H177.915L177.922 73H179.511V74.176ZM183.668 80.182C183.024 80.182 182.436 80.0163 181.904 79.685C181.377 79.3537 180.954 78.9103 180.637 78.355C180.324 77.795 180.168 77.1767 180.168 76.5C180.168 75.9867 180.259 75.5083 180.441 75.065C180.623 74.617 180.873 74.225 181.19 73.889C181.512 73.5483 181.885 73.2823 182.31 73.091C182.735 72.8997 183.187 72.804 183.668 72.804C184.312 72.804 184.898 72.9697 185.425 73.301C185.957 73.6323 186.379 74.078 186.692 74.638C187.009 75.198 187.168 75.8187 187.168 76.5C187.168 77.0087 187.077 77.4847 186.895 77.928C186.713 78.3713 186.461 78.7633 186.139 79.104C185.822 79.44 185.451 79.7037 185.026 79.895C184.606 80.0863 184.153 80.182 183.668 80.182ZM183.668 79.006C184.107 79.006 184.501 78.8917 184.851 78.663C185.206 78.4297 185.483 78.124 185.684 77.746C185.889 77.3633 185.992 76.948 185.992 76.5C185.992 76.0427 185.887 75.6227 185.677 75.24C185.472 74.8573 185.194 74.5517 184.844 74.323C184.494 74.0943 184.102 73.98 183.668 73.98C183.229 73.98 182.835 74.0967 182.485 74.33C182.135 74.5587 181.857 74.8643 181.652 75.247C181.447 75.6297 181.344 76.0473 181.344 76.5C181.344 76.9667 181.449 77.3913 181.659 77.774C181.869 78.152 182.151 78.453 182.506 78.677C182.861 78.8963 183.248 79.006 183.668 79.006ZM191.785 73H192.961V80H191.785V73ZM192.387 71.859C192.201 71.859 192.044 71.7983 191.918 71.677C191.792 71.5557 191.729 71.404 191.729 71.222C191.729 71.04 191.792 70.8883 191.918 70.767C192.044 70.6457 192.198 70.585 192.38 70.585C192.562 70.585 192.716 70.6457 192.842 70.767C192.968 70.8883 193.031 71.04 193.031 71.222C193.031 71.404 192.968 71.5557 192.842 71.677C192.721 71.7983 192.569 71.859 192.387 71.859ZM200.79 75.646V80H199.614V75.905C199.614 75.5503 199.527 75.2283 199.355 74.939C199.182 74.6497 198.951 74.421 198.662 74.253C198.372 74.0803 198.05 73.994 197.696 73.994C197.346 73.994 197.024 74.0803 196.73 74.253C196.44 74.421 196.209 74.6497 196.037 74.939C195.864 75.2283 195.778 75.5503 195.778 75.905V80H194.602V73H195.778V73.875C196.025 73.5483 196.338 73.2893 196.716 73.098C197.094 72.902 197.504 72.804 197.948 72.804C198.47 72.804 198.946 72.9323 199.376 73.189C199.81 73.441 200.153 73.7817 200.405 74.211C200.661 74.6403 200.79 75.1187 200.79 75.646ZM205.816 74.176H204.227L204.22 80H203.044L203.051 74.176H201.847V73H203.051L203.044 70.802H204.22L204.227 73H205.816V74.176ZM207.07 80V73H208.246V73.875C208.494 73.5483 208.806 73.2893 209.184 73.098C209.562 72.902 209.973 72.804 210.416 72.804C210.687 72.804 210.948 72.839 211.2 72.909L210.724 74.085C210.533 74.0243 210.346 73.994 210.164 73.994C209.814 73.994 209.492 74.0803 209.198 74.253C208.909 74.421 208.678 74.6497 208.505 74.939C208.333 75.2283 208.246 75.5503 208.246 75.905V80H207.07ZM214.785 80.182C214.141 80.182 213.553 80.0163 213.021 79.685C212.494 79.3537 212.072 78.9103 211.754 78.355C211.442 77.795 211.285 77.1767 211.285 76.5C211.285 75.9867 211.376 75.5083 211.558 75.065C211.74 74.617 211.99 74.225 212.307 73.889C212.629 73.5483 213.003 73.2823 213.427 73.091C213.852 72.8997 214.305 72.804 214.785 72.804C215.429 72.804 216.015 72.9697 216.542 73.301C217.074 73.6323 217.497 74.078 217.809 74.638C218.127 75.198 218.285 75.8187 218.285 76.5C218.285 77.0087 218.194 77.4847 218.012 77.928C217.83 78.3713 217.578 78.7633 217.256 79.104C216.939 79.44 216.568 79.7037 216.143 79.895C215.723 80.0863 215.271 80.182 214.785 80.182ZM214.785 79.006C215.224 79.006 215.618 78.8917 215.968 78.663C216.323 78.4297 216.601 78.124 216.801 77.746C217.007 77.3633 217.109 76.948 217.109 76.5C217.109 76.0427 217.004 75.6227 216.794 75.24C216.589 74.8573 216.311 74.5517 215.961 74.323C215.611 74.0943 215.219 73.98 214.785 73.98C214.347 73.98 213.952 74.0967 213.602 74.33C213.252 74.5587 212.975 74.8643 212.769 75.247C212.564 75.6297 212.461 76.0473 212.461 76.5C212.461 76.9667 212.566 77.3913 212.776 77.774C212.986 78.152 213.269 78.453 213.623 78.677C213.978 78.8963 214.365 79.006 214.785 79.006ZM225.038 69.5H226.214V80H225.038V78.81C224.8 79.2207 224.48 79.552 224.079 79.804C223.677 80.056 223.206 80.182 222.665 80.182C222.156 80.182 221.68 80.0863 221.237 79.895C220.793 79.7037 220.401 79.44 220.061 79.104C219.725 78.7633 219.461 78.3713 219.27 77.928C219.078 77.4847 218.983 77.0087 218.983 76.5C218.983 75.9913 219.078 75.5153 219.27 75.072C219.461 74.624 219.725 74.232 220.061 73.896C220.401 73.5553 220.793 73.2893 221.237 73.098C221.68 72.9067 222.156 72.811 222.665 72.811C223.206 72.811 223.677 72.937 224.079 73.189C224.48 73.441 224.8 73.7723 225.038 74.183V69.5ZM222.678 79.041C223.141 79.041 223.54 78.929 223.876 78.705C224.216 78.4763 224.478 78.1683 224.66 77.781C224.846 77.3937 224.94 76.9667 224.94 76.5C224.94 76.024 224.846 75.5947 224.66 75.212C224.473 74.8247 224.209 74.519 223.869 74.295C223.533 74.0663 223.136 73.952 222.678 73.952C222.217 73.952 221.797 74.0663 221.419 74.295C221.045 74.5237 220.747 74.8317 220.523 75.219C220.299 75.6017 220.187 76.0287 220.187 76.5C220.187 76.9713 220.301 77.4007 220.53 77.788C220.758 78.1707 221.062 78.4763 221.44 78.705C221.818 78.929 222.231 79.041 222.678 79.041ZM227.613 77.34V73H228.789V77.081C228.789 77.4357 228.875 77.7577 229.048 78.047C229.22 78.3363 229.451 78.5673 229.741 78.74C230.035 78.908 230.357 78.992 230.707 78.992C231.061 78.992 231.381 78.908 231.666 78.74C231.955 78.5673 232.186 78.3363 232.359 78.047C232.531 77.7577 232.618 77.4357 232.618 77.081V73H233.794L233.801 80H232.625L232.618 79.111C232.37 79.4377 232.058 79.699 231.68 79.895C231.302 80.0863 230.893 80.182 230.455 80.182C229.932 80.182 229.454 80.056 229.02 79.804C228.59 79.5473 228.247 79.2043 227.991 78.775C227.739 78.3457 227.613 77.8673 227.613 77.34ZM239.962 78.152L241.012 78.719C240.694 79.1623 240.291 79.517 239.801 79.783C239.315 80.049 238.788 80.182 238.219 80.182C237.575 80.182 236.987 80.0163 236.455 79.685C235.927 79.3537 235.505 78.9103 235.188 78.355C234.875 77.795 234.719 77.1767 234.719 76.5C234.719 75.9867 234.81 75.5083 234.992 75.065C235.174 74.617 235.423 74.225 235.741 73.889C236.063 73.5483 236.436 73.2823 236.861 73.091C237.285 72.8997 237.738 72.804 238.219 72.804C238.788 72.804 239.315 72.937 239.801 73.203C240.291 73.469 240.694 73.826 241.012 74.274L239.962 74.841C239.738 74.5657 239.472 74.3533 239.164 74.204C238.856 74.0547 238.541 73.98 238.219 73.98C237.785 73.98 237.39 74.0967 237.036 74.33C236.686 74.5587 236.408 74.8643 236.203 75.247C235.997 75.6297 235.895 76.0473 235.895 76.5C235.895 76.9527 235.997 77.3703 236.203 77.753C236.413 78.131 236.693 78.4343 237.043 78.663C237.397 78.8917 237.789 79.006 238.219 79.006C238.564 79.006 238.888 78.9267 239.192 78.768C239.495 78.6093 239.752 78.404 239.962 78.152ZM245.233 80.182C244.589 80.182 244.001 80.0163 243.469 79.685C242.941 79.3537 242.519 78.9103 242.202 78.355C241.889 77.795 241.733 77.1767 241.733 76.5C241.733 75.9867 241.824 75.5083 242.006 75.065C242.188 74.617 242.437 74.225 242.755 73.889C243.077 73.5483 243.45 73.2823 243.875 73.091C244.299 72.8997 244.752 72.804 245.233 72.804C245.76 72.804 246.243 72.9113 246.682 73.126C247.125 73.336 247.503 73.63 247.816 74.008C248.133 74.386 248.369 74.8247 248.523 75.324C248.681 75.8233 248.74 76.3577 248.698 76.927H242.986C243.042 77.3237 243.172 77.6783 243.378 77.991C243.583 78.299 243.844 78.544 244.162 78.726C244.484 78.908 244.841 79.0013 245.233 79.006C245.653 79.006 246.033 78.8987 246.374 78.684C246.714 78.4647 246.99 78.166 247.2 77.788L248.397 78.068C248.117 78.6887 247.694 79.1973 247.13 79.594C246.565 79.986 245.933 80.182 245.233 80.182ZM242.951 76.003H247.515C247.477 75.611 247.351 75.254 247.137 74.932C246.922 74.6053 246.649 74.344 246.318 74.148C245.986 73.952 245.625 73.854 245.233 73.854C244.841 73.854 244.481 73.9497 244.155 74.141C243.828 74.3323 243.557 74.5913 243.343 74.918C243.133 75.24 243.002 75.6017 242.951 76.003ZM256.962 74.176H255.373L255.366 80H254.19L254.197 74.176H252.993V73H254.197L254.19 70.802H255.366L255.373 73H256.962V74.176ZM264.405 75.646V80H263.229V75.905C263.229 75.5503 263.143 75.2283 262.97 74.939C262.797 74.6497 262.566 74.421 262.277 74.253C261.988 74.0803 261.666 73.994 261.311 73.994C260.961 73.994 260.639 74.0803 260.345 74.253C260.056 74.421 259.825 74.6497 259.652 74.939C259.479 75.2283 259.393 75.5503 259.393 75.905V80H258.217V69.5H259.393V73.875C259.64 73.5483 259.953 73.2893 260.331 73.098C260.709 72.902 261.12 72.804 261.563 72.804C262.086 72.804 262.562 72.9323 262.991 73.189C263.425 73.441 263.768 73.7817 264.02 74.211C264.277 74.6403 264.405 75.1187 264.405 75.646ZM268.748 80.182C268.104 80.182 267.516 80.0163 266.984 79.685C266.457 79.3537 266.034 78.9103 265.717 78.355C265.404 77.795 265.248 77.1767 265.248 76.5C265.248 75.9867 265.339 75.5083 265.521 75.065C265.703 74.617 265.953 74.225 266.27 73.889C266.592 73.5483 266.965 73.2823 267.39 73.091C267.815 72.8997 268.267 72.804 268.748 72.804C269.275 72.804 269.758 72.9113 270.197 73.126C270.64 73.336 271.018 73.63 271.331 74.008C271.648 74.386 271.884 74.8247 272.038 75.324C272.197 75.8233 272.255 76.3577 272.213 76.927H266.501C266.557 77.3237 266.688 77.6783 266.893 77.991C267.098 78.299 267.36 78.544 267.677 78.726C267.999 78.908 268.356 79.0013 268.748 79.006C269.168 79.006 269.548 78.8987 269.889 78.684C270.23 78.4647 270.505 78.166 270.715 77.788L271.912 78.068C271.632 78.6887 271.21 79.1973 270.645 79.594C270.08 79.986 269.448 80.182 268.748 80.182ZM266.466 76.003H271.03C270.993 75.611 270.867 75.254 270.652 74.932C270.437 74.6053 270.164 74.344 269.833 74.148C269.502 73.952 269.14 73.854 268.748 73.854C268.356 73.854 267.997 73.9497 267.67 74.141C267.343 74.3323 267.073 74.5913 266.858 74.918C266.648 75.24 266.517 75.6017 266.466 76.003ZM39.016 106.5H37.84V96H39.016V97.197C39.254 96.7863 39.5713 96.455 39.968 96.203C40.3647 95.9463 40.836 95.818 41.382 95.818C41.8907 95.818 42.3667 95.9137 42.81 96.105C43.258 96.2963 43.65 96.5623 43.986 96.903C44.322 97.239 44.5857 97.6287 44.777 98.072C44.9683 98.5153 45.064 98.9913 45.064 99.5C45.064 100.009 44.9683 100.487 44.777 100.935C44.5857 101.383 44.322 101.777 43.986 102.118C43.65 102.454 43.258 102.718 42.81 102.909C42.3667 103.1 41.8907 103.196 41.382 103.196C40.836 103.196 40.3647 103.07 39.968 102.818C39.5713 102.561 39.254 102.228 39.016 101.817V106.5ZM41.368 96.959C40.9153 96.959 40.5187 97.0733 40.178 97.302C39.8373 97.5307 39.5737 97.8363 39.387 98.219C39.205 98.6017 39.114 99.0287 39.114 99.5C39.114 99.9667 39.205 100.394 39.387 100.781C39.5737 101.168 39.835 101.476 40.171 101.705C40.5117 101.934 40.9107 102.048 41.368 102.048C41.8207 102.048 42.236 101.936 42.614 101.712C42.992 101.483 43.2953 101.178 43.524 100.795C43.7527 100.408 43.867 99.976 43.867 99.5C43.867 99.0333 43.755 98.6087 43.531 98.226C43.307 97.8387 43.006 97.5307 42.628 97.302C42.25 97.0733 41.83 96.959 41.368 96.959ZM46.2345 103V96H47.4105V96.875C47.6579 96.5483 47.9705 96.2893 48.3485 96.098C48.7265 95.902 49.1372 95.804 49.5805 95.804C49.8512 95.804 50.1125 95.839 50.3645 95.909L49.8885 97.085C49.6972 97.0243 49.5105 96.994 49.3285 96.994C48.9785 96.994 48.6565 97.0803 48.3625 97.253C48.0732 97.421 47.8422 97.6497 47.6695 97.939C47.4969 98.2283 47.4105 98.5503 47.4105 98.905V103H46.2345ZM51.2248 96H52.4008V103H51.2248V96ZM51.8268 94.859C51.6401 94.859 51.4838 94.7983 51.3578 94.677C51.2318 94.5557 51.1688 94.404 51.1688 94.222C51.1688 94.04 51.2318 93.8883 51.3578 93.767C51.4838 93.6457 51.6378 93.585 51.8198 93.585C52.0018 93.585 52.1558 93.6457 52.2818 93.767C52.4078 93.8883 52.4708 94.04 52.4708 94.222C52.4708 94.404 52.4078 94.5557 52.2818 94.677C52.1604 94.7983 52.0088 94.859 51.8268 94.859ZM60.2292 98.646V103H59.0532V98.905C59.0532 98.5503 58.9668 98.2283 58.7942 97.939C58.6215 97.6497 58.3905 97.421 58.1012 97.253C57.8118 97.0803 57.4898 96.994 57.1352 96.994C56.7852 96.994 56.4632 97.0803 56.1692 97.253C55.8798 97.421 55.6488 97.6497 55.4762 97.939C55.3035 98.2283 55.2172 98.5503 55.2172 98.905V103H54.0412V96H55.2172V96.875C55.4645 96.5483 55.7772 96.2893 56.1552 96.098C56.5332 95.902 56.9438 95.804 57.3872 95.804C57.9098 95.804 58.3858 95.9323 58.8152 96.189C59.2492 96.441 59.5922 96.7817 59.8442 97.211C60.1008 97.6403 60.2292 98.1187 60.2292 98.646ZM66.3153 101.152L67.3653 101.719C67.048 102.162 66.6443 102.517 66.1543 102.783C65.669 103.049 65.1417 103.182 64.5723 103.182C63.9283 103.182 63.3403 103.016 62.8083 102.685C62.281 102.354 61.8587 101.91 61.5413 101.355C61.2287 100.795 61.0723 100.177 61.0723 99.5C61.0723 98.9867 61.1633 98.5083 61.3453 98.065C61.5273 97.617 61.777 97.225 62.0943 96.889C62.4163 96.5483 62.7897 96.2823 63.2143 96.091C63.639 95.8997 64.0917 95.804 64.5723 95.804C65.1417 95.804 65.669 95.937 66.1543 96.203C66.6443 96.469 67.048 96.826 67.3653 97.274L66.3153 97.841C66.0913 97.5657 65.8253 97.3533 65.5173 97.204C65.2093 97.0547 64.8943 96.98 64.5723 96.98C64.1383 96.98 63.744 97.0967 63.3893 97.33C63.0393 97.5587 62.7617 97.8643 62.5563 98.247C62.351 98.6297 62.2483 99.0473 62.2483 99.5C62.2483 99.9527 62.351 100.37 62.5563 100.753C62.7663 101.131 63.0463 101.434 63.3963 101.663C63.751 101.892 64.143 102.006 64.5723 102.006C64.9177 102.006 65.242 101.927 65.5453 101.768C65.8487 101.609 66.1053 101.404 66.3153 101.152ZM68.465 96H69.641V103H68.465V96ZM69.067 94.859C68.8803 94.859 68.724 94.7983 68.598 94.677C68.472 94.5557 68.409 94.404 68.409 94.222C68.409 94.04 68.472 93.8883 68.598 93.767C68.724 93.6457 68.878 93.585 69.06 93.585C69.242 93.585 69.396 93.6457 69.522 93.767C69.648 93.8883 69.711 94.04 69.711 94.222C69.711 94.404 69.648 94.5557 69.522 94.677C69.4007 94.7983 69.249 94.859 69.067 94.859ZM72.4301 106.5H71.2541V96H72.4301V97.197C72.6681 96.7863 72.9854 96.455 73.3821 96.203C73.7787 95.9463 74.2501 95.818 74.7961 95.818C75.3047 95.818 75.7807 95.9137 76.2241 96.105C76.6721 96.2963 77.0641 96.5623 77.4001 96.903C77.7361 97.239 77.9997 97.6287 78.1911 98.072C78.3824 98.5153 78.4781 98.9913 78.4781 99.5C78.4781 100.009 78.3824 100.487 78.1911 100.935C77.9997 101.383 77.7361 101.777 77.4001 102.118C77.0641 102.454 76.6721 102.718 76.2241 102.909C75.7807 103.1 75.3047 103.196 74.7961 103.196C74.2501 103.196 73.7787 103.07 73.3821 102.818C72.9854 102.561 72.6681 102.228 72.4301 101.817V106.5ZM74.7821 96.959C74.3294 96.959 73.9327 97.0733 73.5921 97.302C73.2514 97.5307 72.9877 97.8363 72.8011 98.219C72.6191 98.6017 72.5281 99.0287 72.5281 99.5C72.5281 99.9667 72.6191 100.394 72.8011 100.781C72.9877 101.168 73.2491 101.476 73.5851 101.705C73.9257 101.934 74.3247 102.048 74.7821 102.048C75.2347 102.048 75.6501 101.936 76.0281 101.712C76.4061 101.483 76.7094 101.178 76.9381 100.795C77.1667 100.408 77.2811 99.976 77.2811 99.5C77.2811 99.0333 77.1691 98.6087 76.9451 98.226C76.7211 97.8387 76.4201 97.5307 76.0421 97.302C75.6641 97.0733 75.2441 96.959 74.7821 96.959ZM79.5802 103V92.5H80.7562V103H79.5802ZM85.4493 103.182C84.8053 103.182 84.2173 103.016 83.6853 102.685C83.158 102.354 82.7356 101.91 82.4183 101.355C82.1056 100.795 81.9493 100.177 81.9493 99.5C81.9493 98.9867 82.0403 98.5083 82.2223 98.065C82.4043 97.617 82.654 97.225 82.9713 96.889C83.2933 96.5483 83.6666 96.2823 84.0913 96.091C84.516 95.8997 84.9686 95.804 85.4493 95.804C85.9766 95.804 86.4596 95.9113 86.8983 96.126C87.3416 96.336 87.7196 96.63 88.0323 97.008C88.3496 97.386 88.5853 97.8247 88.7393 98.324C88.898 98.8233 88.9563 99.3577 88.9143 99.927H83.2023C83.2583 100.324 83.389 100.678 83.5943 100.991C83.7996 101.299 84.061 101.544 84.3783 101.726C84.7003 101.908 85.0573 102.001 85.4493 102.006C85.8693 102.006 86.2496 101.899 86.5903 101.684C86.931 101.465 87.2063 101.166 87.4163 100.788L88.6133 101.068C88.3333 101.689 87.911 102.197 87.3463 102.594C86.7816 102.986 86.1493 103.182 85.4493 103.182ZM83.1673 99.003H87.7313C87.694 98.611 87.568 98.254 87.3533 97.932C87.1386 97.6053 86.8656 97.344 86.5343 97.148C86.203 96.952 85.8413 96.854 85.4493 96.854C85.0573 96.854 84.698 96.9497 84.3713 97.141C84.0446 97.3323 83.774 97.5913 83.5593 97.918C83.3493 98.24 83.2186 98.6017 83.1673 99.003ZM92.2563 103.133C91.8783 103.119 91.5096 103.049 91.1503 102.923C90.7956 102.792 90.4829 102.617 90.2123 102.398C89.9463 102.174 89.7526 101.917 89.6313 101.628L90.6393 101.194C90.7093 101.353 90.8353 101.502 91.0173 101.642C91.1993 101.782 91.4093 101.894 91.6473 101.978C91.8853 102.062 92.1256 102.104 92.3683 102.104C92.6249 102.104 92.8653 102.064 93.0893 101.985C93.3133 101.906 93.4953 101.789 93.6353 101.635C93.7799 101.476 93.8523 101.287 93.8523 101.068C93.8523 100.835 93.7729 100.653 93.6143 100.522C93.4603 100.387 93.2643 100.282 93.0263 100.207C92.7929 100.128 92.5549 100.053 92.3123 99.983C91.8316 99.8617 91.4023 99.717 91.0243 99.549C90.6463 99.3763 90.3476 99.1593 90.1283 98.898C89.9136 98.632 89.8063 98.2937 89.8063 97.883C89.8063 97.449 89.9253 97.0733 90.1633 96.756C90.4059 96.4387 90.7233 96.1937 91.1153 96.021C91.5073 95.8483 91.9273 95.762 92.3753 95.762C92.9399 95.762 93.4556 95.8833 93.9223 96.126C94.3889 96.3687 94.7366 96.6977 94.9653 97.113L94.0203 97.666C93.9409 97.498 93.8196 97.351 93.6562 97.225C93.4929 97.0943 93.3063 96.9917 93.0963 96.917C92.8863 96.8423 92.6716 96.8027 92.4523 96.798C92.1816 96.7887 91.9273 96.8237 91.6893 96.903C91.4559 96.9823 91.2669 97.1037 91.1223 97.267C90.9823 97.4257 90.9123 97.624 90.9123 97.862C90.9123 98.0953 90.9869 98.2727 91.1363 98.394C91.2903 98.5153 91.4886 98.6133 91.7313 98.688C91.9786 98.758 92.2469 98.8397 92.5363 98.933C92.9609 99.0683 93.3576 99.2247 93.7263 99.402C94.0949 99.5793 94.3913 99.801 94.6153 100.067C94.8439 100.333 94.9559 100.662 94.9513 101.054C94.9513 101.483 94.8229 101.859 94.5663 102.181C94.3096 102.498 93.9759 102.741 93.5653 102.909C93.1593 103.077 92.7229 103.152 92.2563 103.133ZM102.594 103.182C101.95 103.182 101.362 103.016 100.83 102.685C100.302 102.354 99.8802 101.91 99.5628 101.355C99.2502 100.795 99.0938 100.177 99.0938 99.5C99.0938 98.9867 99.1848 98.5083 99.3668 98.065C99.5488 97.617 99.7985 97.225 100.116 96.889C100.438 96.5483 100.811 96.2823 101.236 96.091C101.66 95.8997 102.113 95.804 102.594 95.804C103.238 95.804 103.823 95.9697 104.351 96.301C104.883 96.6323 105.305 97.078 105.618 97.638C105.935 98.198 106.094 98.8187 106.094 99.5C106.094 100.009 106.003 100.485 105.821 100.928C105.639 101.371 105.387 101.763 105.065 102.104C104.747 102.44 104.376 102.704 103.952 102.895C103.532 103.086 103.079 103.182 102.594 103.182ZM102.594 102.006C103.032 102.006 103.427 101.892 103.777 101.663C104.131 101.43 104.409 101.124 104.61 100.746C104.815 100.363 104.918 99.948 104.918 99.5C104.918 99.0427 104.813 98.6227 104.603 98.24C104.397 97.8573 104.12 97.5517 103.77 97.323C103.42 97.0943 103.028 96.98 102.594 96.98C102.155 96.98 101.761 97.0967 101.411 97.33C101.061 97.5587 100.783 97.8643 100.578 98.247C100.372 98.6297 100.27 99.0473 100.27 99.5C100.27 99.9667 100.375 100.391 100.585 100.774C100.795 101.152 101.077 101.453 101.432 101.677C101.786 101.896 102.174 102.006 102.594 102.006ZM108.937 94.271V96H110.988V97.176H108.937V103H107.761V97.176H106.858V96H107.761V94.271C107.761 93.9117 107.847 93.5873 108.02 93.298C108.197 93.004 108.433 92.7707 108.727 92.598C109.025 92.4207 109.352 92.332 109.707 92.332C109.968 92.332 110.222 92.3857 110.47 92.493C110.717 92.5957 110.936 92.7497 111.128 92.955L110.288 93.788C110.222 93.6993 110.136 93.6317 110.029 93.585C109.926 93.5337 109.819 93.508 109.707 93.508C109.497 93.508 109.315 93.5827 109.161 93.732C109.011 93.8813 108.937 94.061 108.937 94.271ZM120.319 101.152L121.369 101.719C121.052 102.162 120.648 102.517 120.158 102.783C119.673 103.049 119.146 103.182 118.576 103.182C117.932 103.182 117.344 103.016 116.812 102.685C116.285 102.354 115.863 101.91 115.545 101.355C115.233 100.795 115.076 100.177 115.076 99.5C115.076 98.9867 115.167 98.5083 115.349 98.065C115.531 97.617 115.781 97.225 116.098 96.889C116.42 96.5483 116.794 96.2823 117.218 96.091C117.643 95.8997 118.096 95.804 118.576 95.804C119.146 95.804 119.673 95.937 120.158 96.203C120.648 96.469 121.052 96.826 121.369 97.274L120.319 97.841C120.095 97.5657 119.829 97.3533 119.521 97.204C119.213 97.0547 118.898 96.98 118.576 96.98C118.142 96.98 117.748 97.0967 117.393 97.33C117.043 97.5587 116.766 97.8643 116.56 98.247C116.355 98.6297 116.252 99.0473 116.252 99.5C116.252 99.9527 116.355 100.37 116.56 100.753C116.77 101.131 117.05 101.434 117.4 101.663C117.755 101.892 118.147 102.006 118.576 102.006C118.922 102.006 119.246 101.927 119.549 101.768C119.853 101.609 120.109 101.404 120.319 101.152ZM125.59 103.182C124.946 103.182 124.358 103.016 123.826 102.685C123.299 102.354 122.876 101.91 122.559 101.355C122.246 100.795 122.09 100.177 122.09 99.5C122.09 98.9867 122.181 98.5083 122.363 98.065C122.545 97.617 122.795 97.225 123.112 96.889C123.434 96.5483 123.807 96.2823 124.232 96.091C124.657 95.8997 125.109 95.804 125.59 95.804C126.234 95.804 126.82 95.9697 127.347 96.301C127.879 96.6323 128.301 97.078 128.614 97.638C128.931 98.198 129.09 98.8187 129.09 99.5C129.09 100.009 128.999 100.485 128.817 100.928C128.635 101.371 128.383 101.763 128.061 102.104C127.744 102.44 127.373 102.704 126.948 102.895C126.528 103.086 126.075 103.182 125.59 103.182ZM125.59 102.006C126.029 102.006 126.423 101.892 126.773 101.663C127.128 101.43 127.405 101.124 127.606 100.746C127.811 100.363 127.914 99.948 127.914 99.5C127.914 99.0427 127.809 98.6227 127.599 98.24C127.394 97.8573 127.116 97.5517 126.766 97.323C126.416 97.0943 126.024 96.98 125.59 96.98C125.151 96.98 124.757 97.0967 124.407 97.33C124.057 97.5587 123.779 97.8643 123.574 98.247C123.369 98.6297 123.266 99.0473 123.266 99.5C123.266 99.9667 123.371 100.391 123.581 100.774C123.791 101.152 124.073 101.453 124.428 101.677C124.783 101.896 125.17 102.006 125.59 102.006ZM136.436 98.646V103H135.26V98.905C135.26 98.5503 135.174 98.2283 135.001 97.939C134.829 97.6497 134.598 97.421 134.308 97.253C134.019 97.0803 133.697 96.994 133.342 96.994C132.992 96.994 132.67 97.0803 132.376 97.253C132.087 97.421 131.856 97.6497 131.683 97.939C131.511 98.2283 131.424 98.5503 131.424 98.905V103H130.248V96H131.424V96.875C131.672 96.5483 131.984 96.2893 132.362 96.098C132.74 95.902 133.151 95.804 133.594 95.804C134.117 95.804 134.593 95.9323 135.022 96.189C135.456 96.441 135.799 96.7817 136.051 97.211C136.308 97.6403 136.436 98.1187 136.436 98.646ZM139.971 103.133C139.593 103.119 139.224 103.049 138.865 102.923C138.51 102.792 138.198 102.617 137.927 102.398C137.661 102.174 137.467 101.917 137.346 101.628L138.354 101.194C138.424 101.353 138.55 101.502 138.732 101.642C138.914 101.782 139.124 101.894 139.362 101.978C139.6 102.062 139.84 102.104 140.083 102.104C140.34 102.104 140.58 102.064 140.804 101.985C141.028 101.906 141.21 101.789 141.35 101.635C141.495 101.476 141.567 101.287 141.567 101.068C141.567 100.835 141.488 100.653 141.329 100.522C141.175 100.387 140.979 100.282 140.741 100.207C140.508 100.128 140.27 100.053 140.027 99.983C139.546 99.8617 139.117 99.717 138.739 99.549C138.361 99.3763 138.062 99.1593 137.843 98.898C137.628 98.632 137.521 98.2937 137.521 97.883C137.521 97.449 137.64 97.0733 137.878 96.756C138.121 96.4387 138.438 96.1937 138.83 96.021C139.222 95.8483 139.642 95.762 140.09 95.762C140.655 95.762 141.17 95.8833 141.637 96.126C142.104 96.3687 142.451 96.6977 142.68 97.113L141.735 97.666C141.656 97.498 141.534 97.351 141.371 97.225C141.208 97.0943 141.021 96.9917 140.811 96.917C140.601 96.8423 140.386 96.8027 140.167 96.798C139.896 96.7887 139.642 96.8237 139.404 96.903C139.171 96.9823 138.982 97.1037 138.837 97.267C138.697 97.4257 138.627 97.624 138.627 97.862C138.627 98.0953 138.702 98.2727 138.851 98.394C139.005 98.5153 139.203 98.6133 139.446 98.688C139.693 98.758 139.962 98.8397 140.251 98.933C140.676 99.0683 141.072 99.2247 141.441 99.402C141.81 99.5793 142.106 99.801 142.33 100.067C142.559 100.333 142.671 100.662 142.666 101.054C142.666 101.483 142.538 101.859 142.281 102.181C142.024 102.498 141.691 102.741 141.28 102.909C140.874 103.077 140.438 103.152 139.971 103.133ZM148.62 101.152L149.67 101.719C149.353 102.162 148.949 102.517 148.459 102.783C147.974 103.049 147.446 103.182 146.877 103.182C146.233 103.182 145.645 103.016 145.113 102.685C144.586 102.354 144.163 101.91 143.846 101.355C143.533 100.795 143.377 100.177 143.377 99.5C143.377 98.9867 143.468 98.5083 143.65 98.065C143.832 97.617 144.082 97.225 144.399 96.889C144.721 96.5483 145.094 96.2823 145.519 96.091C145.944 95.8997 146.396 95.804 146.877 95.804C147.446 95.804 147.974 95.937 148.459 96.203C148.949 96.469 149.353 96.826 149.67 97.274L148.62 97.841C148.396 97.5657 148.13 97.3533 147.822 97.204C147.514 97.0547 147.199 96.98 146.877 96.98C146.443 96.98 146.049 97.0967 145.694 97.33C145.344 97.5587 145.066 97.8643 144.861 98.247C144.656 98.6297 144.553 99.0473 144.553 99.5C144.553 99.9527 144.656 100.37 144.861 100.753C145.071 101.131 145.351 101.434 145.701 101.663C146.056 101.892 146.448 102.006 146.877 102.006C147.222 102.006 147.547 101.927 147.85 101.768C148.153 101.609 148.41 101.404 148.62 101.152ZM150.77 96H151.946V103H150.77V96ZM151.372 94.859C151.185 94.859 151.029 94.7983 150.903 94.677C150.777 94.5557 150.714 94.404 150.714 94.222C150.714 94.04 150.777 93.8883 150.903 93.767C151.029 93.6457 151.183 93.585 151.365 93.585C151.547 93.585 151.701 93.6457 151.827 93.767C151.953 93.8883 152.016 94.04 152.016 94.222C152.016 94.404 151.953 94.5557 151.827 94.677C151.705 94.7983 151.554 94.859 151.372 94.859ZM156.611 103.182C155.967 103.182 155.379 103.016 154.847 102.685C154.32 102.354 153.898 101.91 153.58 101.355C153.268 100.795 153.111 100.177 153.111 99.5C153.111 98.9867 153.202 98.5083 153.384 98.065C153.566 97.617 153.816 97.225 154.133 96.889C154.455 96.5483 154.829 96.2823 155.253 96.091C155.678 95.8997 156.131 95.804 156.611 95.804C157.255 95.804 157.841 95.9697 158.368 96.301C158.9 96.6323 159.323 97.078 159.635 97.638C159.953 98.198 160.111 98.8187 160.111 99.5C160.111 100.009 160.02 100.485 159.838 100.928C159.656 101.371 159.404 101.763 159.082 102.104C158.765 102.44 158.394 102.704 157.969 102.895C157.549 103.086 157.097 103.182 156.611 103.182ZM156.611 102.006C157.05 102.006 157.444 101.892 157.794 101.663C158.149 101.43 158.427 101.124 158.627 100.746C158.833 100.363 158.935 99.948 158.935 99.5C158.935 99.0427 158.83 98.6227 158.62 98.24C158.415 97.8573 158.137 97.5517 157.787 97.323C157.437 97.0943 157.045 96.98 156.611 96.98C156.173 96.98 155.778 97.0967 155.428 97.33C155.078 97.5587 154.801 97.8643 154.595 98.247C154.39 98.6297 154.287 99.0473 154.287 99.5C154.287 99.9667 154.392 100.391 154.602 100.774C154.812 101.152 155.095 101.453 155.449 101.677C155.804 101.896 156.191 102.006 156.611 102.006ZM160.894 100.34V96H162.07V100.081C162.07 100.436 162.156 100.758 162.329 101.047C162.502 101.336 162.733 101.567 163.022 101.74C163.316 101.908 163.638 101.992 163.988 101.992C164.343 101.992 164.662 101.908 164.947 101.74C165.236 101.567 165.467 101.336 165.64 101.047C165.813 100.758 165.899 100.436 165.899 100.081V96H167.075L167.082 103H165.906L165.899 102.111C165.652 102.438 165.339 102.699 164.961 102.895C164.583 103.086 164.175 103.182 163.736 103.182C163.213 103.182 162.735 103.056 162.301 102.804C161.872 102.547 161.529 102.204 161.272 101.775C161.02 101.346 160.894 100.867 160.894 100.34ZM170.623 103.133C170.245 103.119 169.877 103.049 169.517 102.923C169.163 102.792 168.85 102.617 168.579 102.398C168.313 102.174 168.12 101.917 167.998 101.628L169.006 101.194C169.076 101.353 169.202 101.502 169.384 101.642C169.566 101.782 169.776 101.894 170.014 101.978C170.252 102.062 170.493 102.104 170.735 102.104C170.992 102.104 171.232 102.064 171.456 101.985C171.68 101.906 171.862 101.789 172.002 101.635C172.147 101.476 172.219 101.287 172.219 101.068C172.219 100.835 172.14 100.653 171.981 100.522C171.827 100.387 171.631 100.282 171.393 100.207C171.16 100.128 170.922 100.053 170.679 99.983C170.199 99.8617 169.769 99.717 169.391 99.549C169.013 99.3763 168.715 99.1593 168.495 98.898C168.281 98.632 168.173 98.2937 168.173 97.883C168.173 97.449 168.292 97.0733 168.53 96.756C168.773 96.4387 169.09 96.1937 169.482 96.021C169.874 95.8483 170.294 95.762 170.742 95.762C171.307 95.762 171.823 95.8833 172.289 96.126C172.756 96.3687 173.104 96.6977 173.332 97.113L172.387 97.666C172.308 97.498 172.187 97.351 172.023 97.225C171.86 97.0943 171.673 96.9917 171.463 96.917C171.253 96.8423 171.039 96.8027 170.819 96.798C170.549 96.7887 170.294 96.8237 170.056 96.903C169.823 96.9823 169.634 97.1037 169.489 97.267C169.349 97.4257 169.279 97.624 169.279 97.862C169.279 98.0953 169.354 98.2727 169.503 98.394C169.657 98.5153 169.856 98.6133 170.098 98.688C170.346 98.758 170.614 98.8397 170.903 98.933C171.328 99.0683 171.725 99.2247 172.093 99.402C172.462 99.5793 172.758 99.801 172.982 100.067C173.211 100.333 173.323 100.662 173.318 101.054C173.318 101.483 173.19 101.859 172.933 102.181C172.677 102.498 172.343 102.741 171.932 102.909C171.526 103.077 171.09 103.152 170.623 103.133ZM177.881 103V92.5H179.057V103H177.881ZM180.738 96H181.914V103H180.738V96ZM181.34 94.859C181.154 94.859 180.997 94.7983 180.871 94.677C180.745 94.5557 180.682 94.404 180.682 94.222C180.682 94.04 180.745 93.8883 180.871 93.767C180.997 93.6457 181.151 93.585 181.333 93.585C181.515 93.585 181.669 93.6457 181.795 93.767C181.921 93.8883 181.984 94.04 181.984 94.222C181.984 94.404 181.921 94.5557 181.795 94.677C181.674 94.7983 181.522 94.859 181.34 94.859ZM187.113 103H185.608L183.053 95.986H184.306L186.357 101.635L188.408 95.986H189.661L187.113 103ZM190.801 96H191.977V103H190.801V96ZM191.403 94.859C191.216 94.859 191.06 94.7983 190.934 94.677C190.808 94.5557 190.745 94.404 190.745 94.222C190.745 94.04 190.808 93.8883 190.934 93.767C191.06 93.6457 191.214 93.585 191.396 93.585C191.578 93.585 191.732 93.6457 191.858 93.767C191.984 93.8883 192.047 94.04 192.047 94.222C192.047 94.404 191.984 94.5557 191.858 94.677C191.737 94.7983 191.585 94.859 191.403 94.859ZM199.805 98.646V103H198.629V98.905C198.629 98.5503 198.543 98.2283 198.37 97.939C198.198 97.6497 197.967 97.421 197.677 97.253C197.388 97.0803 197.066 96.994 196.711 96.994C196.361 96.994 196.039 97.0803 195.745 97.253C195.456 97.421 195.225 97.6497 195.052 97.939C194.88 98.2283 194.793 98.5503 194.793 98.905V103H193.617V96H194.793V96.875C195.041 96.5483 195.353 96.2893 195.731 96.098C196.109 95.902 196.52 95.804 196.963 95.804C197.486 95.804 197.962 95.9323 198.391 96.189C198.825 96.441 199.168 96.7817 199.42 97.211C199.677 97.6403 199.805 98.1187 199.805 98.646ZM206.536 96H207.712V103.224C207.712 103.686 207.611 104.115 207.411 104.512C207.215 104.913 206.949 105.261 206.613 105.555C206.277 105.854 205.894 106.085 205.465 106.248C205.035 106.416 204.587 106.5 204.121 106.5C203.635 106.5 203.166 106.39 202.714 106.171C202.261 105.956 201.864 105.667 201.524 105.303C201.188 104.944 200.945 104.54 200.796 104.092L201.874 103.602C201.962 103.924 202.121 104.213 202.35 104.47C202.583 104.731 202.854 104.937 203.162 105.086C203.474 105.24 203.794 105.317 204.121 105.317C204.429 105.317 204.725 105.263 205.01 105.156C205.299 105.049 205.558 104.899 205.787 104.708C206.02 104.521 206.202 104.3 206.333 104.043C206.468 103.791 206.536 103.518 206.536 103.224V101.831C206.298 102.232 205.983 102.559 205.591 102.811C205.203 103.058 204.751 103.182 204.233 103.182C203.738 103.182 203.274 103.086 202.84 102.895C202.406 102.704 202.025 102.44 201.699 102.104C201.372 101.763 201.115 101.371 200.929 100.928C200.742 100.485 200.649 100.009 200.649 99.5C200.649 98.9913 200.742 98.5153 200.929 98.072C201.115 97.624 201.372 97.232 201.699 96.896C202.025 96.5553 202.406 96.2893 202.84 96.098C203.274 95.9067 203.738 95.811 204.233 95.811C204.751 95.811 205.203 95.9347 205.591 96.182C205.983 96.4293 206.298 96.756 206.536 97.162V96ZM204.24 102.041C204.692 102.041 205.084 101.924 205.416 101.691C205.752 101.458 206.011 101.147 206.193 100.76C206.375 100.373 206.466 99.9527 206.466 99.5C206.466 99.0333 206.372 98.6087 206.186 98.226C206.004 97.8387 205.745 97.5307 205.409 97.302C205.077 97.0687 204.688 96.952 204.24 96.952C203.801 96.952 203.4 97.0663 203.036 97.295C202.672 97.5237 202.382 97.8317 202.168 98.219C201.958 98.6017 201.853 99.0287 201.853 99.5C201.853 99.9713 201.96 100.401 202.175 100.788C202.394 101.171 202.683 101.476 203.043 101.705C203.407 101.929 203.806 102.041 204.24 102.041ZM209.115 103.784L209.549 101.418H210.725L209.899 103.784H209.115ZM217.901 103.133C217.523 103.119 217.154 103.049 216.795 102.923C216.44 102.792 216.127 102.617 215.857 102.398C215.591 102.174 215.397 101.917 215.276 101.628L216.284 101.194C216.354 101.353 216.48 101.502 216.662 101.642C216.844 101.782 217.054 101.894 217.292 101.978C217.53 102.062 217.77 102.104 218.013 102.104C218.269 102.104 218.51 102.064 218.734 101.985C218.958 101.906 219.14 101.789 219.28 101.635C219.424 101.476 219.497 101.287 219.497 101.068C219.497 100.835 219.417 100.653 219.259 100.522C219.105 100.387 218.909 100.282 218.671 100.207C218.437 100.128 218.199 100.053 217.957 99.983C217.476 99.8617 217.047 99.717 216.669 99.549C216.291 99.3763 215.992 99.1593 215.773 98.898C215.558 98.632 215.451 98.2937 215.451 97.883C215.451 97.449 215.57 97.0733 215.808 96.756C216.05 96.4387 216.368 96.1937 216.76 96.021C217.152 95.8483 217.572 95.762 218.02 95.762C218.584 95.762 219.1 95.8833 219.567 96.126C220.033 96.3687 220.381 96.6977 220.61 97.113L219.665 97.666C219.585 97.498 219.464 97.351 219.301 97.225C219.137 97.0943 218.951 96.9917 218.741 96.917C218.531 96.8423 218.316 96.8027 218.097 96.798C217.826 96.7887 217.572 96.8237 217.334 96.903C217.1 96.9823 216.911 97.1037 216.767 97.267C216.627 97.4257 216.557 97.624 216.557 97.862C216.557 98.0953 216.631 98.2727 216.781 98.394C216.935 98.5153 217.133 98.6133 217.376 98.688C217.623 98.758 217.891 98.8397 218.181 98.933C218.605 99.0683 219.002 99.2247 219.371 99.402C219.739 99.5793 220.036 99.801 220.26 100.067C220.488 100.333 220.6 100.662 220.596 101.054C220.596 101.483 220.467 101.859 220.211 102.181C219.954 102.498 219.62 102.741 219.21 102.909C218.804 103.077 218.367 103.152 217.901 103.133ZM224.807 103.182C224.163 103.182 223.575 103.016 223.043 102.685C222.515 102.354 222.093 101.91 221.776 101.355C221.463 100.795 221.307 100.177 221.307 99.5C221.307 98.9867 221.398 98.5083 221.58 98.065C221.762 97.617 222.011 97.225 222.329 96.889C222.651 96.5483 223.024 96.2823 223.449 96.091C223.873 95.8997 224.326 95.804 224.807 95.804C225.334 95.804 225.817 95.9113 226.256 96.126C226.699 96.336 227.077 96.63 227.39 97.008C227.707 97.386 227.943 97.8247 228.097 98.324C228.255 98.8233 228.314 99.3577 228.272 99.927H222.56C222.616 100.324 222.746 100.678 222.952 100.991C223.157 101.299 223.418 101.544 223.736 101.726C224.058 101.908 224.415 102.001 224.807 102.006C225.227 102.006 225.607 101.899 225.948 101.684C226.288 101.465 226.564 101.166 226.774 100.788L227.971 101.068C227.691 101.689 227.268 102.197 226.704 102.594C226.139 102.986 225.507 103.182 224.807 103.182ZM222.525 99.003H227.089C227.051 98.611 226.925 98.254 226.711 97.932C226.496 97.6053 226.223 97.344 225.892 97.148C225.56 96.952 225.199 96.854 224.807 96.854C224.415 96.854 224.055 96.9497 223.729 97.141C223.402 97.3323 223.131 97.5913 222.917 97.918C222.707 98.24 222.576 98.6017 222.525 99.003ZM229.383 103V92.5H230.559V103H229.383ZM233.829 94.271V96H235.88V97.176H233.829V103H232.653V97.176H231.75V96H232.653V94.271C232.653 93.9117 232.74 93.5873 232.912 93.298C233.09 93.004 233.325 92.7707 233.619 92.598C233.918 92.4207 234.245 92.332 234.599 92.332C234.861 92.332 235.115 92.3857 235.362 92.493C235.61 92.5957 235.829 92.7497 236.02 92.955L235.18 93.788C235.115 93.6993 235.029 93.6317 234.921 93.585C234.819 93.5337 234.711 93.508 234.599 93.508C234.389 93.508 234.207 93.5827 234.053 93.732C233.904 93.8813 233.829 94.061 233.829 94.271ZM236.889 98.212H241.369V99.388H236.889V98.212ZM248.683 96H249.859V103H248.683L248.634 101.817C248.415 102.223 248.111 102.552 247.724 102.804C247.341 103.056 246.884 103.182 246.352 103.182C245.839 103.182 245.358 103.086 244.91 102.895C244.462 102.699 244.065 102.431 243.72 102.09C243.379 101.745 243.113 101.348 242.922 100.9C242.731 100.452 242.635 99.969 242.635 99.451C242.635 98.9517 242.728 98.4803 242.915 98.037C243.102 97.5937 243.361 97.2063 243.692 96.875C244.028 96.539 244.415 96.2777 244.854 96.091C245.293 95.8997 245.764 95.804 246.268 95.804C246.819 95.804 247.302 95.9347 247.717 96.196C248.132 96.4527 248.468 96.7863 248.725 97.197L248.683 96ZM246.331 102.041C246.793 102.041 247.192 101.929 247.528 101.705C247.869 101.476 248.13 101.168 248.312 100.781C248.499 100.394 248.592 99.9667 248.592 99.5C248.592 99.024 248.499 98.5947 248.312 98.212C248.125 97.8247 247.862 97.519 247.521 97.295C247.185 97.0663 246.788 96.952 246.331 96.952C245.869 96.952 245.449 97.0663 245.071 97.295C244.693 97.5237 244.392 97.8317 244.168 98.219C243.949 98.6017 243.839 99.0287 243.839 99.5C243.839 99.9713 243.953 100.401 244.182 100.788C244.411 101.171 244.714 101.476 245.092 101.705C245.47 101.929 245.883 102.041 246.331 102.041ZM254.182 103H252.992L250.647 96H251.795L253.601 101.341L255.386 96H256.597L258.389 101.341L260.174 96H261.336L258.991 103H257.794L255.981 97.61L254.182 103ZM267.823 96H268.999V103H267.823L267.774 101.817C267.555 102.223 267.252 102.552 266.864 102.804C266.482 103.056 266.024 103.182 265.492 103.182C264.979 103.182 264.498 103.086 264.05 102.895C263.602 102.699 263.206 102.431 262.86 102.09C262.52 101.745 262.254 101.348 262.062 100.9C261.871 100.452 261.775 99.969 261.775 99.451C261.775 98.9517 261.869 98.4803 262.055 98.037C262.242 97.5937 262.501 97.2063 262.832 96.875C263.168 96.539 263.556 96.2777 263.994 96.091C264.433 95.8997 264.904 95.804 265.408 95.804C265.959 95.804 266.442 95.9347 266.857 96.196C267.273 96.4527 267.609 96.7863 267.865 97.197L267.823 96ZM265.471 102.041C265.933 102.041 266.332 101.929 266.668 101.705C267.009 101.476 267.27 101.168 267.452 100.781C267.639 100.394 267.732 99.9667 267.732 99.5C267.732 99.024 267.639 98.5947 267.452 98.212C267.266 97.8247 267.002 97.519 266.661 97.295C266.325 97.0663 265.929 96.952 265.471 96.952C265.009 96.952 264.589 97.0663 264.211 97.295C263.833 97.5237 263.532 97.8317 263.308 98.219C263.089 98.6017 262.979 99.0287 262.979 99.5C262.979 99.9713 263.094 100.401 263.322 100.788C263.551 101.171 263.854 101.476 264.232 101.705C264.61 101.929 265.023 102.041 265.471 102.041ZM270.399 103V96H271.575V96.875C271.822 96.5483 272.135 96.2893 272.513 96.098C272.891 95.902 273.301 95.804 273.745 95.804C274.015 95.804 274.277 95.839 274.529 95.909L274.053 97.085C273.861 97.0243 273.675 96.994 273.493 96.994C273.143 96.994 272.821 97.0803 272.527 97.253C272.237 97.421 272.006 97.6497 271.834 97.939C271.661 98.2283 271.575 98.5503 271.575 98.905V103H270.399ZM278.113 103.182C277.469 103.182 276.881 103.016 276.349 102.685C275.822 102.354 275.4 101.91 275.082 101.355C274.77 100.795 274.613 100.177 274.613 99.5C274.613 98.9867 274.704 98.5083 274.886 98.065C275.068 97.617 275.318 97.225 275.635 96.889C275.957 96.5483 276.331 96.2823 276.755 96.091C277.18 95.8997 277.633 95.804 278.113 95.804C278.641 95.804 279.124 95.9113 279.562 96.126C280.006 96.336 280.384 96.63 280.696 97.008C281.014 97.386 281.249 97.8247 281.403 98.324C281.562 98.8233 281.62 99.3577 281.578 99.927H275.866C275.922 100.324 276.053 100.678 276.258 100.991C276.464 101.299 276.725 101.544 277.042 101.726C277.364 101.908 277.721 102.001 278.113 102.006C278.533 102.006 278.914 101.899 279.254 101.684C279.595 101.465 279.87 101.166 280.08 100.788L281.277 101.068C280.997 101.689 280.575 102.197 280.01 102.594C279.446 102.986 278.813 103.182 278.113 103.182ZM275.831 99.003H280.395C280.358 98.611 280.232 98.254 280.017 97.932C279.803 97.6053 279.53 97.344 279.198 97.148C278.867 96.952 278.505 96.854 278.113 96.854C277.721 96.854 277.362 96.9497 277.035 97.141C276.709 97.3323 276.438 97.5913 276.223 97.918C276.013 98.24 275.883 98.6017 275.831 99.003ZM288.946 98.646V103H287.77V98.905C287.77 98.5503 287.684 98.2283 287.511 97.939C287.338 97.6497 287.107 97.421 286.818 97.253C286.529 97.0803 286.207 96.994 285.852 96.994C285.502 96.994 285.18 97.0803 284.886 97.253C284.597 97.421 284.366 97.6497 284.193 97.939C284.02 98.2283 283.934 98.5503 283.934 98.905V103H282.758V96H283.934V96.875C284.181 96.5483 284.494 96.2893 284.872 96.098C285.25 95.902 285.661 95.804 286.104 95.804C286.627 95.804 287.103 95.9323 287.532 96.189C287.966 96.441 288.309 96.7817 288.561 97.211C288.818 97.6403 288.946 98.1187 288.946 98.646ZM293.289 103.182C292.645 103.182 292.057 103.016 291.525 102.685C290.998 102.354 290.575 101.91 290.258 101.355C289.945 100.795 289.789 100.177 289.789 99.5C289.789 98.9867 289.88 98.5083 290.062 98.065C290.244 97.617 290.494 97.225 290.811 96.889C291.133 96.5483 291.506 96.2823 291.931 96.091C292.356 95.8997 292.808 95.804 293.289 95.804C293.816 95.804 294.299 95.9113 294.738 96.126C295.181 96.336 295.559 96.63 295.872 97.008C296.189 97.386 296.425 97.8247 296.579 98.324C296.738 98.8233 296.796 99.3577 296.754 99.927H291.042C291.098 100.324 291.229 100.678 291.434 100.991C291.639 101.299 291.901 101.544 292.218 101.726C292.54 101.908 292.897 102.001 293.289 102.006C293.709 102.006 294.089 101.899 294.43 101.684C294.771 101.465 295.046 101.166 295.256 100.788L296.453 101.068C296.173 101.689 295.751 102.197 295.186 102.594C294.621 102.986 293.989 103.182 293.289 103.182ZM291.007 99.003H295.571C295.534 98.611 295.408 98.254 295.193 97.932C294.978 97.6053 294.705 97.344 294.374 97.148C294.043 96.952 293.681 96.854 293.289 96.854C292.897 96.854 292.538 96.9497 292.211 97.141C291.884 97.3323 291.614 97.5913 291.399 97.918C291.189 98.24 291.058 98.6017 291.007 99.003ZM300.096 103.133C299.718 103.119 299.349 103.049 298.99 102.923C298.635 102.792 298.323 102.617 298.052 102.398C297.786 102.174 297.592 101.917 297.471 101.628L298.479 101.194C298.549 101.353 298.675 101.502 298.857 101.642C299.039 101.782 299.249 101.894 299.487 101.978C299.725 102.062 299.965 102.104 300.208 102.104C300.465 102.104 300.705 102.064 300.929 101.985C301.153 101.906 301.335 101.789 301.475 101.635C301.62 101.476 301.692 101.287 301.692 101.068C301.692 100.835 301.613 100.653 301.454 100.522C301.3 100.387 301.104 100.282 300.866 100.207C300.633 100.128 300.395 100.053 300.152 99.983C299.671 99.8617 299.242 99.717 298.864 99.549C298.486 99.3763 298.187 99.1593 297.968 98.898C297.753 98.632 297.646 98.2937 297.646 97.883C297.646 97.449 297.765 97.0733 298.003 96.756C298.246 96.4387 298.563 96.1937 298.955 96.021C299.347 95.8483 299.767 95.762 300.215 95.762C300.78 95.762 301.295 95.8833 301.762 96.126C302.229 96.3687 302.576 96.6977 302.805 97.113L301.86 97.666C301.781 97.498 301.659 97.351 301.496 97.225C301.333 97.0943 301.146 96.9917 300.936 96.917C300.726 96.8423 300.511 96.8027 300.292 96.798C300.021 96.7887 299.767 96.8237 299.529 96.903C299.296 96.9823 299.107 97.1037 298.962 97.267C298.822 97.4257 298.752 97.624 298.752 97.862C298.752 98.0953 298.827 98.2727 298.976 98.394C299.13 98.5153 299.328 98.6133 299.571 98.688C299.818 98.758 300.087 98.8397 300.376 98.933C300.801 99.0683 301.197 99.2247 301.566 99.402C301.935 99.5793 302.231 99.801 302.455 100.067C302.684 100.333 302.796 100.662 302.791 101.054C302.791 101.483 302.663 101.859 302.406 102.181C302.149 102.498 301.816 102.741 301.405 102.909C300.999 103.077 300.563 103.152 300.096 103.133ZM306.125 103.133C305.747 103.119 305.379 103.049 305.019 102.923C304.665 102.792 304.352 102.617 304.081 102.398C303.815 102.174 303.622 101.917 303.5 101.628L304.508 101.194C304.578 101.353 304.704 101.502 304.886 101.642C305.068 101.782 305.278 101.894 305.516 101.978C305.754 102.062 305.995 102.104 306.237 102.104C306.494 102.104 306.734 102.064 306.958 101.985C307.182 101.906 307.364 101.789 307.504 101.635C307.649 101.476 307.721 101.287 307.721 101.068C307.721 100.835 307.642 100.653 307.483 100.522C307.329 100.387 307.133 100.282 306.895 100.207C306.662 100.128 306.424 100.053 306.181 99.983C305.701 99.8617 305.271 99.717 304.893 99.549C304.515 99.3763 304.217 99.1593 303.997 98.898C303.783 98.632 303.675 98.2937 303.675 97.883C303.675 97.449 303.794 97.0733 304.032 96.756C304.275 96.4387 304.592 96.1937 304.984 96.021C305.376 95.8483 305.796 95.762 306.244 95.762C306.809 95.762 307.325 95.8833 307.791 96.126C308.258 96.3687 308.606 96.6977 308.834 97.113L307.889 97.666C307.81 97.498 307.689 97.351 307.525 97.225C307.362 97.0943 307.175 96.9917 306.965 96.917C306.755 96.8423 306.541 96.8027 306.321 96.798C306.051 96.7887 305.796 96.8237 305.558 96.903C305.325 96.9823 305.136 97.1037 304.991 97.267C304.851 97.4257 304.781 97.624 304.781 97.862C304.781 98.0953 304.856 98.2727 305.005 98.394C305.159 98.5153 305.358 98.6133 305.6 98.688C305.848 98.758 306.116 98.8397 306.405 98.933C306.83 99.0683 307.227 99.2247 307.595 99.402C307.964 99.5793 308.26 99.801 308.484 100.067C308.713 100.333 308.825 100.662 308.82 101.054C308.82 101.483 308.692 101.859 308.435 102.181C308.179 102.498 307.845 102.741 307.434 102.909C307.028 103.077 306.592 103.152 306.125 103.133ZM309.699 103.784L310.133 101.418H311.309L310.483 103.784H309.699ZM43.468 119H44.644V126H43.468L43.419 124.817C43.1997 125.223 42.8963 125.552 42.509 125.804C42.1263 126.056 41.669 126.182 41.137 126.182C40.6237 126.182 40.143 126.086 39.695 125.895C39.247 125.699 38.8503 125.431 38.505 125.09C38.1643 124.745 37.8983 124.348 37.707 123.9C37.5157 123.452 37.42 122.969 37.42 122.451C37.42 121.952 37.5133 121.48 37.7 121.037C37.8867 120.594 38.1457 120.206 38.477 119.875C38.813 119.539 39.2003 119.278 39.639 119.091C40.0777 118.9 40.549 118.804 41.053 118.804C41.6037 118.804 42.0867 118.935 42.502 119.196C42.9173 119.453 43.2533 119.786 43.51 120.197L43.468 119ZM41.116 125.041C41.578 125.041 41.977 124.929 42.313 124.705C42.6537 124.476 42.915 124.168 43.097 123.781C43.2837 123.394 43.377 122.967 43.377 122.5C43.377 122.024 43.2837 121.595 43.097 121.212C42.9103 120.825 42.6467 120.519 42.306 120.295C41.97 120.066 41.5733 119.952 41.116 119.952C40.654 119.952 40.234 120.066 39.856 120.295C39.478 120.524 39.177 120.832 38.953 121.219C38.7337 121.602 38.624 122.029 38.624 122.5C38.624 122.971 38.7383 123.401 38.967 123.788C39.1957 124.171 39.499 124.476 39.877 124.705C40.255 124.929 40.668 125.041 41.116 125.041ZM52.2311 121.646V126H51.0551V121.905C51.0551 121.55 50.9688 121.228 50.7961 120.939C50.6235 120.65 50.3925 120.421 50.1031 120.253C49.8138 120.08 49.4918 119.994 49.1371 119.994C48.7871 119.994 48.4651 120.08 48.1711 120.253C47.8818 120.421 47.6508 120.65 47.4781 120.939C47.3055 121.228 47.2191 121.55 47.2191 121.905V126H46.0431V119H47.2191V119.875C47.4665 119.548 47.7791 119.289 48.1571 119.098C48.5351 118.902 48.9458 118.804 49.3891 118.804C49.9118 118.804 50.3878 118.932 50.8171 119.189C51.2511 119.441 51.5941 119.782 51.8461 120.211C52.1028 120.64 52.2311 121.119 52.2311 121.646ZM59.1293 115.5H60.3053V126H59.1293V124.81C58.8913 125.221 58.5716 125.552 58.1703 125.804C57.769 126.056 57.2976 126.182 56.7563 126.182C56.2476 126.182 55.7716 126.086 55.3283 125.895C54.885 125.704 54.493 125.44 54.1523 125.104C53.8163 124.763 53.5526 124.371 53.3613 123.928C53.17 123.485 53.0743 123.009 53.0743 122.5C53.0743 121.991 53.17 121.515 53.3613 121.072C53.5526 120.624 53.8163 120.232 54.1523 119.896C54.493 119.555 54.885 119.289 55.3283 119.098C55.7716 118.907 56.2476 118.811 56.7563 118.811C57.2976 118.811 57.769 118.937 58.1703 119.189C58.5716 119.441 58.8913 119.772 59.1293 120.183V115.5ZM56.7703 125.041C57.2323 125.041 57.6313 124.929 57.9673 124.705C58.308 124.476 58.5693 124.168 58.7513 123.781C58.938 123.394 59.0313 122.967 59.0313 122.5C59.0313 122.024 58.938 121.595 58.7513 121.212C58.5646 120.825 58.301 120.519 57.9603 120.295C57.6243 120.066 57.2276 119.952 56.7703 119.952C56.3083 119.952 55.8883 120.066 55.5103 120.295C55.137 120.524 54.8383 120.832 54.6143 121.219C54.3903 121.602 54.2783 122.029 54.2783 122.5C54.2783 122.971 54.3926 123.401 54.6213 123.788C54.85 124.171 55.1533 124.476 55.5313 124.705C55.9093 124.929 56.3223 125.041 56.7703 125.041ZM67.4828 126.133C67.1048 126.119 66.7361 126.049 66.3768 125.923C66.0221 125.792 65.7095 125.617 65.4388 125.398C65.1728 125.174 64.9791 124.917 64.8578 124.628L65.8658 124.194C65.9358 124.353 66.0618 124.502 66.2438 124.642C66.4258 124.782 66.6358 124.894 66.8738 124.978C67.1118 125.062 67.3521 125.104 67.5948 125.104C67.8515 125.104 68.0918 125.064 68.3158 124.985C68.5398 124.906 68.7218 124.789 68.8618 124.635C69.0065 124.476 69.0788 124.287 69.0788 124.068C69.0788 123.835 68.9995 123.653 68.8408 123.522C68.6868 123.387 68.4908 123.282 68.2528 123.207C68.0195 123.128 67.7815 123.053 67.5388 122.983C67.0581 122.862 66.6288 122.717 66.2508 122.549C65.8728 122.376 65.5741 122.159 65.3548 121.898C65.1401 121.632 65.0328 121.294 65.0328 120.883C65.0328 120.449 65.1518 120.073 65.3898 119.756C65.6325 119.439 65.9498 119.194 66.3418 119.021C66.7338 118.848 67.1538 118.762 67.6018 118.762C68.1665 118.762 68.6821 118.883 69.1488 119.126C69.6155 119.369 69.9631 119.698 70.1918 120.113L69.2468 120.666C69.1675 120.498 69.0461 120.351 68.8828 120.225C68.7195 120.094 68.5328 119.992 68.3228 119.917C68.1128 119.842 67.8981 119.803 67.6788 119.798C67.4081 119.789 67.1538 119.824 66.9158 119.903C66.6825 119.982 66.4935 120.104 66.3488 120.267C66.2088 120.426 66.1388 120.624 66.1388 120.862C66.1388 121.095 66.2135 121.273 66.3628 121.394C66.5168 121.515 66.7151 121.613 66.9578 121.688C67.2051 121.758 67.4735 121.84 67.7628 121.933C68.1875 122.068 68.5841 122.225 68.9528 122.402C69.3215 122.579 69.6178 122.801 69.8418 123.067C70.0705 123.333 70.1825 123.662 70.1778 124.054C70.1778 124.483 70.0495 124.859 69.7928 125.181C69.5361 125.498 69.2025 125.741 68.7918 125.909C68.3858 126.077 67.9495 126.152 67.4828 126.133ZM72.5531 129.5H71.3771V119H72.5531V120.197C72.7911 119.786 73.1084 119.455 73.5051 119.203C73.9018 118.946 74.3731 118.818 74.9191 118.818C75.4278 118.818 75.9038 118.914 76.3471 119.105C76.7951 119.296 77.1871 119.562 77.5231 119.903C77.8591 120.239 78.1228 120.629 78.3141 121.072C78.5054 121.515 78.6011 121.991 78.6011 122.5C78.6011 123.009 78.5054 123.487 78.3141 123.935C78.1228 124.383 77.8591 124.777 77.5231 125.118C77.1871 125.454 76.7951 125.718 76.3471 125.909C75.9038 126.1 75.4278 126.196 74.9191 126.196C74.3731 126.196 73.9018 126.07 73.5051 125.818C73.1084 125.561 72.7911 125.228 72.5531 124.817V129.5ZM74.9051 119.959C74.4524 119.959 74.0558 120.073 73.7151 120.302C73.3744 120.531 73.1108 120.836 72.9241 121.219C72.7421 121.602 72.6511 122.029 72.6511 122.5C72.6511 122.967 72.7421 123.394 72.9241 123.781C73.1108 124.168 73.3721 124.476 73.7081 124.705C74.0488 124.934 74.4478 125.048 74.9051 125.048C75.3578 125.048 75.7731 124.936 76.1511 124.712C76.5291 124.483 76.8324 124.178 77.0611 123.795C77.2898 123.408 77.4041 122.976 77.4041 122.5C77.4041 122.033 77.2921 121.609 77.0681 121.226C76.8441 120.839 76.5431 120.531 76.1651 120.302C75.7871 120.073 75.3671 119.959 74.9051 119.959ZM79.6759 119H80.8519V126H79.6759V119ZM80.2779 117.859C80.0913 117.859 79.9349 117.798 79.8089 117.677C79.6829 117.556 79.6199 117.404 79.6199 117.222C79.6199 117.04 79.6829 116.888 79.8089 116.767C79.9349 116.646 80.0889 116.585 80.2709 116.585C80.4529 116.585 80.6069 116.646 80.7329 116.767C80.8589 116.888 80.9219 117.04 80.9219 117.222C80.9219 117.404 80.8589 117.556 80.7329 117.677C80.6116 117.798 80.4599 117.859 80.2779 117.859ZM82.4923 126V119H83.6683V119.875C83.9157 119.548 84.2283 119.289 84.6063 119.098C84.9843 118.902 85.395 118.804 85.8383 118.804C86.109 118.804 86.3703 118.839 86.6223 118.909L86.1463 120.085C85.955 120.024 85.7683 119.994 85.5863 119.994C85.2363 119.994 84.9143 120.08 84.6203 120.253C84.331 120.421 84.1 120.65 83.9273 120.939C83.7547 121.228 83.6683 121.55 83.6683 121.905V126H82.4923ZM87.4826 119H88.6586V126H87.4826V119ZM88.0846 117.859C87.8979 117.859 87.7416 117.798 87.6156 117.677C87.4896 117.556 87.4266 117.404 87.4266 117.222C87.4266 117.04 87.4896 116.888 87.6156 116.767C87.7416 116.646 87.8956 116.585 88.0776 116.585C88.2596 116.585 88.4136 116.646 88.5396 116.767C88.6656 116.888 88.7286 117.04 88.7286 117.222C88.7286 117.404 88.6656 117.556 88.5396 117.677C88.4182 117.798 88.2666 117.859 88.0846 117.859ZM93.966 120.176H92.377L92.37 126H91.194L91.201 120.176H89.997V119H91.201L91.194 116.802H92.37L92.377 119H93.966V120.176ZM94.9409 123.34V119H96.1169V123.081C96.1169 123.436 96.2032 123.758 96.3759 124.047C96.5485 124.336 96.7795 124.567 97.0689 124.74C97.3629 124.908 97.6849 124.992 98.0349 124.992C98.3895 124.992 98.7092 124.908 98.9939 124.74C99.2832 124.567 99.5142 124.336 99.6869 124.047C99.8595 123.758 99.9459 123.436 99.9459 123.081V119H101.122L101.129 126H99.9529L99.9459 125.111C99.6985 125.438 99.3859 125.699 99.0079 125.895C98.6299 126.086 98.2215 126.182 97.7829 126.182C97.2602 126.182 96.7819 126.056 96.3479 125.804C95.9185 125.547 95.5755 125.204 95.3189 124.775C95.0669 124.346 94.9409 123.867 94.9409 123.34ZM108.095 119H109.271V126H108.095L108.046 124.817C107.827 125.223 107.523 125.552 107.136 125.804C106.753 126.056 106.296 126.182 105.764 126.182C105.251 126.182 104.77 126.086 104.322 125.895C103.874 125.699 103.477 125.431 103.132 125.09C102.791 124.745 102.525 124.348 102.334 123.9C102.143 123.452 102.047 122.969 102.047 122.451C102.047 121.952 102.14 121.48 102.327 121.037C102.514 120.594 102.773 120.206 103.104 119.875C103.44 119.539 103.827 119.278 104.266 119.091C104.705 118.9 105.176 118.804 105.68 118.804C106.231 118.804 106.714 118.935 107.129 119.196C107.544 119.453 107.88 119.786 108.137 120.197L108.095 119ZM105.743 125.041C106.205 125.041 106.604 124.929 106.94 124.705C107.281 124.476 107.542 124.168 107.724 123.781C107.911 123.394 108.004 122.967 108.004 122.5C108.004 122.024 107.911 121.595 107.724 121.212C107.537 120.825 107.274 120.519 106.933 120.295C106.597 120.066 106.2 119.952 105.743 119.952C105.281 119.952 104.861 120.066 104.483 120.295C104.105 120.524 103.804 120.832 103.58 121.219C103.361 121.602 103.251 122.029 103.251 122.5C103.251 122.971 103.365 123.401 103.594 123.788C103.823 124.171 104.126 124.476 104.504 124.705C104.882 124.929 105.295 125.041 105.743 125.041ZM110.752 126V115.5H111.928V126H110.752ZM120.088 126H118.898L116.553 119H117.701L119.507 124.341L121.292 119H122.503L124.295 124.341L126.08 119H127.242L124.897 126H123.7L121.887 120.61L120.088 126ZM131.182 126.182C130.538 126.182 129.95 126.016 129.418 125.685C128.89 125.354 128.468 124.91 128.151 124.355C127.838 123.795 127.682 123.177 127.682 122.5C127.682 121.987 127.773 121.508 127.955 121.065C128.137 120.617 128.386 120.225 128.704 119.889C129.026 119.548 129.399 119.282 129.824 119.091C130.248 118.9 130.701 118.804 131.182 118.804C131.709 118.804 132.192 118.911 132.631 119.126C133.074 119.336 133.452 119.63 133.765 120.008C134.082 120.386 134.318 120.825 134.472 121.324C134.63 121.823 134.689 122.358 134.647 122.927H128.935C128.991 123.324 129.121 123.678 129.327 123.991C129.532 124.299 129.793 124.544 130.111 124.726C130.433 124.908 130.79 125.001 131.182 125.006C131.602 125.006 131.982 124.899 132.323 124.684C132.663 124.465 132.939 124.166 133.149 123.788L134.346 124.068C134.066 124.689 133.643 125.197 133.079 125.594C132.514 125.986 131.882 126.182 131.182 126.182ZM128.9 122.003H133.464C133.426 121.611 133.3 121.254 133.086 120.932C132.871 120.605 132.598 120.344 132.267 120.148C131.935 119.952 131.574 119.854 131.182 119.854C130.79 119.854 130.43 119.95 130.104 120.141C129.777 120.332 129.506 120.591 129.292 120.918C129.082 121.24 128.951 121.602 128.9 122.003ZM135.758 126V115.5H136.934V126H135.758ZM138.615 126V115.5H139.791V126H138.615ZM147.661 121.646V126H146.485V121.905C146.485 121.55 146.398 121.228 146.226 120.939C146.053 120.65 145.822 120.421 145.533 120.253C145.243 120.08 144.921 119.994 144.567 119.994C144.217 119.994 143.895 120.08 143.601 120.253C143.311 120.421 143.08 120.65 142.908 120.939C142.735 121.228 142.649 121.55 142.649 121.905V126H141.473V119H142.649V119.875C142.896 119.548 143.209 119.289 143.587 119.098C143.965 118.902 144.375 118.804 144.819 118.804C145.341 118.804 145.817 118.932 146.247 119.189C146.681 119.441 147.024 119.782 147.276 120.211C147.532 120.64 147.661 121.119 147.661 121.646ZM152.004 126.182C151.36 126.182 150.772 126.016 150.24 125.685C149.713 125.354 149.29 124.91 148.973 124.355C148.66 123.795 148.504 123.177 148.504 122.5C148.504 121.987 148.595 121.508 148.777 121.065C148.959 120.617 149.209 120.225 149.526 119.889C149.848 119.548 150.221 119.282 150.646 119.091C151.071 118.9 151.523 118.804 152.004 118.804C152.531 118.804 153.014 118.911 153.453 119.126C153.896 119.336 154.274 119.63 154.587 120.008C154.904 120.386 155.14 120.825 155.294 121.324C155.453 121.823 155.511 122.358 155.469 122.927H149.757C149.813 123.324 149.944 123.678 150.149 123.991C150.354 124.299 150.616 124.544 150.933 124.726C151.255 124.908 151.612 125.001 152.004 125.006C152.424 125.006 152.804 124.899 153.145 124.684C153.486 124.465 153.761 124.166 153.971 123.788L155.168 124.068C154.888 124.689 154.466 125.197 153.901 125.594C153.336 125.986 152.704 126.182 152.004 126.182ZM149.722 122.003H154.286C154.249 121.611 154.123 121.254 153.908 120.932C153.693 120.605 153.42 120.344 153.089 120.148C152.758 119.952 152.396 119.854 152.004 119.854C151.612 119.854 151.253 119.95 150.926 120.141C150.599 120.332 150.329 120.591 150.114 120.918C149.904 121.24 149.773 121.602 149.722 122.003ZM158.811 126.133C158.433 126.119 158.064 126.049 157.705 125.923C157.35 125.792 157.038 125.617 156.767 125.398C156.501 125.174 156.307 124.917 156.186 124.628L157.194 124.194C157.264 124.353 157.39 124.502 157.572 124.642C157.754 124.782 157.964 124.894 158.202 124.978C158.44 125.062 158.68 125.104 158.923 125.104C159.18 125.104 159.42 125.064 159.644 124.985C159.868 124.906 160.05 124.789 160.19 124.635C160.335 124.476 160.407 124.287 160.407 124.068C160.407 123.835 160.328 123.653 160.169 123.522C160.015 123.387 159.819 123.282 159.581 123.207C159.348 123.128 159.11 123.053 158.867 122.983C158.386 122.862 157.957 122.717 157.579 122.549C157.201 122.376 156.902 122.159 156.683 121.898C156.468 121.632 156.361 121.294 156.361 120.883C156.361 120.449 156.48 120.073 156.718 119.756C156.961 119.439 157.278 119.194 157.67 119.021C158.062 118.848 158.482 118.762 158.93 118.762C159.495 118.762 160.01 118.883 160.477 119.126C160.944 119.369 161.291 119.698 161.52 120.113L160.575 120.666C160.496 120.498 160.374 120.351 160.211 120.225C160.048 120.094 159.861 119.992 159.651 119.917C159.441 119.842 159.226 119.803 159.007 119.798C158.736 119.789 158.482 119.824 158.244 119.903C158.011 119.982 157.822 120.104 157.677 120.267C157.537 120.426 157.467 120.624 157.467 120.862C157.467 121.095 157.542 121.273 157.691 121.394C157.845 121.515 158.043 121.613 158.286 121.688C158.533 121.758 158.802 121.84 159.091 121.933C159.516 122.068 159.912 122.225 160.281 122.402C160.65 122.579 160.946 122.801 161.17 123.067C161.399 123.333 161.511 123.662 161.506 124.054C161.506 124.483 161.378 124.859 161.121 125.181C160.864 125.498 160.531 125.741 160.12 125.909C159.714 126.077 159.278 126.152 158.811 126.133ZM164.84 126.133C164.462 126.119 164.094 126.049 163.734 125.923C163.38 125.792 163.067 125.617 162.796 125.398C162.53 125.174 162.337 124.917 162.215 124.628L163.223 124.194C163.293 124.353 163.419 124.502 163.601 124.642C163.783 124.782 163.993 124.894 164.231 124.978C164.469 125.062 164.71 125.104 164.952 125.104C165.209 125.104 165.449 125.064 165.673 124.985C165.897 124.906 166.079 124.789 166.219 124.635C166.364 124.476 166.436 124.287 166.436 124.068C166.436 123.835 166.357 123.653 166.198 123.522C166.044 123.387 165.848 123.282 165.61 123.207C165.377 123.128 165.139 123.053 164.896 122.983C164.416 122.862 163.986 122.717 163.608 122.549C163.23 122.376 162.932 122.159 162.712 121.898C162.498 121.632 162.39 121.294 162.39 120.883C162.39 120.449 162.509 120.073 162.747 119.756C162.99 119.439 163.307 119.194 163.699 119.021C164.091 118.848 164.511 118.762 164.959 118.762C165.524 118.762 166.04 118.883 166.506 119.126C166.973 119.369 167.321 119.698 167.549 120.113L166.604 120.666C166.525 120.498 166.404 120.351 166.24 120.225C166.077 120.094 165.89 119.992 165.68 119.917C165.47 119.842 165.256 119.803 165.036 119.798C164.766 119.789 164.511 119.824 164.273 119.903C164.04 119.982 163.851 120.104 163.706 120.267C163.566 120.426 163.496 120.624 163.496 120.862C163.496 121.095 163.571 121.273 163.72 121.394C163.874 121.515 164.073 121.613 164.315 121.688C164.563 121.758 164.831 121.84 165.12 121.933C165.545 122.068 165.942 122.225 166.31 122.402C166.679 122.579 166.975 122.801 167.199 123.067C167.428 123.333 167.54 123.662 167.535 124.054C167.535 124.483 167.407 124.859 167.15 125.181C166.894 125.498 166.56 125.741 166.149 125.909C165.743 126.077 165.307 126.152 164.84 126.133ZM169.051 126.182C168.873 126.182 168.722 126.119 168.596 125.993C168.474 125.867 168.414 125.713 168.414 125.531C168.414 125.358 168.474 125.209 168.596 125.083C168.722 124.957 168.873 124.894 169.051 124.894C169.233 124.894 169.387 124.957 169.513 125.083C169.639 125.209 169.702 125.358 169.702 125.531C169.702 125.713 169.639 125.867 169.513 125.993C169.387 126.119 169.233 126.182 169.051 126.182Z" fill="#4B5563"/>
</g>
<rect x="0.5" y="0.5" width="360" height="165.75" rx="15.5" stroke="#F3F4F6"/>
<defs>
<clipPath id="clip0_3734_12719">
<rect width="361" height="166.75" rx="16" fill="white"/>
</clipPath>
</defs>
</svg>
